<svg width="236" height="382" viewBox="0 0 236 382" fill="none" xmlns="http://www.w3.org/2000/svg">
<g filter="url(#filter0_d_208_4377)">
<g clip-path="url(#clip0_208_4377)">
<rect x="7" y="7" width="191.681" height="340.568" rx="13.3731" fill="#F5F5F5"/>
<rect x="31.0718" y="7.00033" width="5.795" height="8.46961" fill="#ECECEC"/>
<g clip-path="url(#clip1_208_4377)">
<rect x="11.0211" y="14.1487" width="183.631" height="326.604" rx="13.4037" fill="#FFBC00"/>
<path d="M88.9766 170.852V175.356H86.8213V170.852L82.583 163.727H84.489C84.6767 163.727 84.8241 163.772 84.9314 163.863C85.0439 163.954 85.1378 164.07 85.2128 164.209L87.336 168.093C87.4593 168.324 87.5665 168.541 87.6577 168.745C87.7542 168.949 87.84 169.152 87.915 169.356C87.9847 169.152 88.0651 168.949 88.1563 168.745C88.2474 168.541 88.352 168.324 88.4699 168.093L90.585 164.209C90.644 164.091 90.7325 163.981 90.8504 163.879C90.9684 163.777 91.1185 163.727 91.3008 163.727H93.2149L88.9766 170.852ZM96.1573 167.104V175.356H94.1628V167.104H96.1573ZM96.4307 164.7C96.4307 164.871 96.3959 165.032 96.3262 165.182C96.2565 165.332 96.1627 165.464 96.0447 165.576C95.9321 165.689 95.7981 165.78 95.6426 165.85C95.4871 165.914 95.3209 165.946 95.144 165.946C94.9724 165.946 94.8089 165.914 94.6534 165.85C94.5033 165.78 94.3719 165.689 94.2593 165.576C94.1467 165.464 94.0556 165.332 93.9859 165.182C93.9216 165.032 93.8894 164.871 93.8894 164.7C93.8894 164.523 93.9216 164.357 93.9859 164.201C94.0556 164.046 94.1467 163.912 94.2593 163.799C94.3719 163.686 94.5033 163.598 94.6534 163.534C94.8089 163.464 94.9724 163.429 95.144 163.429C95.3209 163.429 95.4871 163.464 95.6426 163.534C95.7981 163.598 95.9321 163.686 96.0447 163.799C96.1627 163.912 96.2565 164.046 96.3262 164.201C96.3959 164.357 96.4307 164.523 96.4307 164.7ZM103.498 170.281C103.498 170.024 103.461 169.782 103.386 169.557C103.316 169.327 103.209 169.126 103.064 168.954C102.919 168.782 102.734 168.648 102.509 168.552C102.289 168.45 102.032 168.399 101.737 168.399C101.163 168.399 100.71 168.563 100.378 168.89C100.051 169.217 99.8418 169.68 99.7507 170.281H103.498ZM99.7105 171.479C99.7426 171.903 99.8177 172.27 99.9356 172.581C100.054 172.887 100.209 173.141 100.402 173.345C100.595 173.543 100.823 173.694 101.086 173.795C101.354 173.892 101.649 173.94 101.97 173.94C102.292 173.94 102.568 173.903 102.799 173.828C103.035 173.753 103.238 173.669 103.41 173.578C103.587 173.487 103.74 173.404 103.868 173.329C104.002 173.254 104.131 173.216 104.254 173.216C104.421 173.216 104.544 173.278 104.624 173.401L105.195 174.125C104.975 174.383 104.729 174.6 104.455 174.777C104.182 174.948 103.895 175.088 103.595 175.195C103.3 175.297 102.997 175.369 102.686 175.412C102.38 175.455 102.083 175.476 101.793 175.476C101.22 175.476 100.686 175.382 100.193 175.195C99.6997 175.002 99.2708 174.72 98.9062 174.35C98.5417 173.975 98.2548 173.514 98.0457 172.967C97.8366 172.415 97.7321 171.777 97.7321 171.053C97.7321 170.49 97.8232 169.962 98.0055 169.469C98.1878 168.97 98.4478 168.538 98.7856 168.174C99.1287 167.804 99.5443 167.512 100.032 167.297C100.525 167.083 101.08 166.976 101.697 166.976C102.217 166.976 102.697 167.059 103.136 167.225C103.576 167.391 103.954 167.635 104.27 167.957C104.587 168.273 104.833 168.664 105.01 169.131C105.193 169.592 105.284 170.12 105.284 170.715C105.284 171.015 105.252 171.219 105.187 171.326C105.123 171.428 105 171.479 104.817 171.479H99.7105ZM108.785 163.405V175.356H106.799V163.405H108.785ZM115.943 169.211C115.718 168.938 115.472 168.745 115.203 168.632C114.941 168.52 114.657 168.463 114.351 168.463C114.051 168.463 113.78 168.52 113.539 168.632C113.297 168.745 113.091 168.916 112.919 169.147C112.748 169.372 112.617 169.662 112.525 170.016C112.434 170.364 112.389 170.777 112.389 171.254C112.389 171.737 112.426 172.147 112.501 172.485C112.582 172.817 112.694 173.09 112.839 173.305C112.984 173.514 113.161 173.667 113.37 173.763C113.579 173.854 113.812 173.9 114.069 173.9C114.482 173.9 114.833 173.814 115.123 173.643C115.413 173.471 115.686 173.227 115.943 172.911V169.211ZM117.93 163.405V175.356H116.715C116.453 175.356 116.286 175.235 116.217 174.994L116.048 174.198C115.715 174.578 115.332 174.886 114.898 175.122C114.469 175.358 113.968 175.476 113.394 175.476C112.944 175.476 112.531 175.382 112.155 175.195C111.78 175.007 111.456 174.736 111.182 174.383C110.914 174.023 110.705 173.581 110.555 173.056C110.41 172.53 110.338 171.93 110.338 171.254C110.338 170.643 110.421 170.075 110.587 169.549C110.753 169.024 110.992 168.568 111.303 168.182C111.614 167.796 111.987 167.496 112.421 167.281C112.855 167.061 113.343 166.951 113.885 166.951C114.346 166.951 114.74 167.024 115.067 167.169C115.394 167.313 115.686 167.509 115.943 167.756V163.405H117.93ZM122.11 163.727V168.327C122.11 168.815 122.086 169.294 122.037 169.766C121.989 170.233 121.928 170.729 121.852 171.254H120.501C120.426 170.729 120.365 170.233 120.316 169.766C120.268 169.294 120.244 168.815 120.244 168.327V163.727H122.11ZM119.93 174.262C119.93 174.096 119.96 173.938 120.019 173.787C120.083 173.637 120.169 173.509 120.276 173.401C120.389 173.294 120.52 173.208 120.67 173.144C120.82 173.08 120.981 173.048 121.153 173.048C121.319 173.048 121.477 173.08 121.627 173.144C121.777 173.208 121.906 173.294 122.013 173.401C122.126 173.509 122.214 173.637 122.279 173.787C122.343 173.938 122.375 174.096 122.375 174.262C122.375 174.433 122.343 174.594 122.279 174.744C122.214 174.889 122.126 175.015 122.013 175.122C121.906 175.23 121.777 175.313 121.627 175.372C121.477 175.436 121.319 175.468 121.153 175.468C120.981 175.468 120.82 175.436 120.67 175.372C120.52 175.313 120.389 175.23 120.276 175.122C120.169 175.015 120.083 174.889 120.019 174.744C119.96 174.594 119.93 174.433 119.93 174.262Z" fill="white"/>
<path d="M72.1245 188.424H70.8002L70.4517 190.172H71.776L72.1245 188.424ZM74.1511 187.721L74.0814 188.124C74.0635 188.227 74.0206 188.304 73.9527 188.354C73.8884 188.401 73.7883 188.424 73.6525 188.424H72.9126L72.5641 190.172H73.5238C73.6275 190.172 73.7007 190.202 73.7436 190.263C73.7901 190.32 73.8026 190.422 73.7812 190.568L73.7329 190.874H72.4622L72.0119 193.142H71.5776C71.5311 193.142 71.4882 193.131 71.4489 193.11C71.4096 193.088 71.3756 193.06 71.347 193.024C71.322 192.988 71.3041 192.945 71.2934 192.895C71.2827 192.845 71.2827 192.79 71.2934 192.729L71.6741 190.874H70.3498L69.9691 192.777C69.9477 192.91 69.8959 193.004 69.8137 193.062C69.7314 193.115 69.6385 193.142 69.5349 193.142H69.1059L69.5617 190.874H68.7789C68.6788 190.874 68.6055 190.845 68.5591 190.788C68.5162 190.727 68.5055 190.624 68.5269 190.477L68.5698 190.172H69.6635L70.012 188.424H68.7682L68.8379 188.027C68.8557 187.923 68.8968 187.847 68.9612 187.797C69.0291 187.746 69.131 187.721 69.2668 187.721H70.1139L70.4999 185.802C70.5214 185.695 70.5696 185.611 70.6447 185.55C70.7233 185.489 70.8163 185.459 70.9235 185.459H71.3524L70.902 187.721H72.2263L72.6767 185.459H73.1002C73.2039 185.459 73.2843 185.493 73.3415 185.561C73.4023 185.629 73.4237 185.714 73.4059 185.818L73.0145 187.721H74.1511ZM78.2964 190.081V193.142H77.2562V190.081L74.4415 185.459H75.3529C75.4458 185.459 75.5191 185.482 75.5727 185.529C75.6263 185.572 75.6728 185.629 75.7121 185.7L77.4707 188.687C77.535 188.812 77.594 188.93 77.6476 189.04C77.7012 189.148 77.7477 189.257 77.787 189.367C77.8263 189.257 77.871 189.148 77.9211 189.04C77.9711 188.93 78.0265 188.812 78.0873 188.687L79.8405 185.7C79.8726 185.639 79.9173 185.584 79.9745 185.534C80.0317 185.484 80.105 185.459 80.1943 185.459H81.1111L78.2964 190.081ZM82.886 187.711V193.142H81.9317V187.711H82.886ZM83.0898 186.006C83.0898 186.099 83.0701 186.186 83.0308 186.269C82.9951 186.347 82.945 186.419 82.8807 186.483C82.8199 186.544 82.7466 186.592 82.6609 186.628C82.5787 186.663 82.4911 186.681 82.3982 186.681C82.3052 186.681 82.2176 186.663 82.1354 186.628C82.0568 186.592 81.9871 186.544 81.9263 186.483C81.8656 186.419 81.8173 186.347 81.7816 186.269C81.7458 186.186 81.728 186.099 81.728 186.006C81.728 185.913 81.7458 185.825 81.7816 185.743C81.8173 185.657 81.8656 185.584 81.9263 185.523C81.9871 185.459 82.0568 185.409 82.1354 185.373C82.2176 185.337 82.3052 185.32 82.3982 185.32C82.4911 185.32 82.5787 185.337 82.6609 185.373C82.7466 185.409 82.8199 185.459 82.8807 185.523C82.945 185.584 82.9951 185.657 83.0308 185.743C83.0701 185.825 83.0898 185.913 83.0898 186.006ZM88.0892 189.834C88.0892 189.612 88.057 189.41 87.9927 189.228C87.9319 189.042 87.8408 188.883 87.7193 188.751C87.6013 188.615 87.4565 188.511 87.285 188.44C87.1134 188.365 86.9186 188.327 86.7006 188.327C86.2431 188.327 85.8803 188.461 85.6122 188.729C85.3477 188.994 85.1833 189.362 85.1189 189.834H88.0892ZM88.8613 192.381C88.7433 192.524 88.6021 192.649 88.4377 192.756C88.2733 192.86 88.0964 192.945 87.9069 193.013C87.721 193.081 87.528 193.131 87.3279 193.163C87.1277 193.199 86.9293 193.217 86.7327 193.217C86.3574 193.217 86.0107 193.154 85.6926 193.029C85.3781 192.901 85.1046 192.715 84.8723 192.472C84.6436 192.225 84.4648 191.921 84.3362 191.56C84.2075 191.199 84.1431 190.785 84.1431 190.316C84.1431 189.938 84.2003 189.584 84.3147 189.255C84.4327 188.926 84.6007 188.642 84.8187 188.402C85.0367 188.159 85.303 187.97 85.6176 187.834C85.9321 187.695 86.286 187.625 86.6791 187.625C87.0044 187.625 87.3046 187.68 87.5799 187.791C87.8587 187.898 88.0981 188.056 88.2983 188.263C88.502 188.467 88.6611 188.72 88.7755 189.024C88.8899 189.325 88.947 189.668 88.947 190.054C88.947 190.204 88.931 190.304 88.8988 190.354C88.8666 190.404 88.8059 190.429 88.7165 190.429H85.0868C85.0975 190.772 85.144 191.071 85.2262 191.324C85.312 191.578 85.4299 191.791 85.58 191.962C85.7301 192.13 85.9089 192.257 86.1162 192.343C86.3235 192.425 86.5558 192.466 86.8132 192.466C87.0526 192.466 87.2582 192.44 87.4297 192.386C87.6049 192.329 87.755 192.268 87.8801 192.204C88.0052 192.139 88.1089 192.08 88.1911 192.027C88.2769 191.97 88.3501 191.941 88.4109 191.941C88.4895 191.941 88.5503 191.971 88.5932 192.032L88.8613 192.381ZM91.1058 185.244V193.142H90.1514V185.244H91.1058ZM96.192 189.003C96.0133 188.763 95.8203 188.597 95.613 188.504C95.4056 188.408 95.1733 188.359 94.916 188.359C94.412 188.359 94.0242 188.54 93.7525 188.901C93.4809 189.262 93.3451 189.777 93.3451 190.445C93.3451 190.799 93.3754 191.103 93.4362 191.357C93.497 191.607 93.5863 191.814 93.7043 191.978C93.8222 192.139 93.967 192.257 94.1386 192.332C94.3101 192.407 94.5049 192.445 94.723 192.445C95.0375 192.445 95.3109 192.373 95.5433 192.23C95.7792 192.088 95.9954 191.886 96.192 191.625V189.003ZM97.1463 185.244V193.142H96.578C96.4422 193.142 96.3564 193.076 96.3207 192.944L96.2349 192.284C96.0026 192.563 95.7381 192.788 95.4414 192.96C95.1447 193.131 94.8016 193.217 94.412 193.217C94.101 193.217 93.8186 193.158 93.5649 193.04C93.3111 192.919 93.0948 192.742 92.9161 192.509C92.7374 192.277 92.5998 191.987 92.5033 191.641C92.4068 191.294 92.3585 190.895 92.3585 190.445C92.3585 190.045 92.4122 189.673 92.5194 189.33C92.6266 188.983 92.7803 188.683 92.9805 188.429C93.1806 188.175 93.4255 187.977 93.715 187.834C94.0081 187.688 94.3369 187.614 94.7015 187.614C95.0339 187.614 95.3181 187.671 95.554 187.786C95.7935 187.897 96.0061 188.052 96.192 188.252V185.244H97.1463ZM101.732 190.081V193.142H100.692V190.081L97.877 185.459H98.7885C98.8814 185.459 98.9547 185.482 99.0083 185.529C99.0619 185.572 99.1084 185.629 99.1477 185.7L100.906 188.687C100.971 188.812 101.03 188.93 101.083 189.04C101.137 189.148 101.183 189.257 101.223 189.367C101.262 189.257 101.307 189.148 101.357 189.04C101.407 188.93 101.462 188.812 101.523 188.687L103.276 185.7C103.308 185.639 103.353 185.584 103.41 185.534C103.467 185.484 103.541 185.459 103.63 185.459H104.547L101.732 190.081ZM106.43 187.625C106.827 187.625 107.184 187.691 107.502 187.823C107.821 187.956 108.092 188.143 108.317 188.386C108.543 188.629 108.714 188.924 108.832 189.271C108.954 189.614 109.014 189.998 109.014 190.424C109.014 190.853 108.954 191.239 108.832 191.582C108.714 191.925 108.543 192.218 108.317 192.461C108.092 192.704 107.821 192.892 107.502 193.024C107.184 193.153 106.827 193.217 106.43 193.217C106.03 193.217 105.669 193.153 105.347 193.024C105.029 192.892 104.757 192.704 104.532 192.461C104.307 192.218 104.134 191.925 104.012 191.582C103.894 191.239 103.835 190.853 103.835 190.424C103.835 189.998 103.894 189.614 104.012 189.271C104.134 188.924 104.307 188.629 104.532 188.386C104.757 188.143 105.029 187.956 105.347 187.823C105.669 187.691 106.03 187.625 106.43 187.625ZM106.43 192.472C106.966 192.472 107.367 192.293 107.631 191.936C107.896 191.575 108.028 191.072 108.028 190.429C108.028 189.782 107.896 189.278 107.631 188.917C107.367 188.556 106.966 188.376 106.43 188.376C106.159 188.376 105.921 188.422 105.717 188.515C105.517 188.608 105.349 188.742 105.213 188.917C105.081 189.092 104.981 189.308 104.913 189.566C104.849 189.82 104.816 190.107 104.816 190.429C104.816 191.072 104.949 191.575 105.213 191.936C105.481 192.293 105.887 192.472 106.43 192.472ZM114.691 187.711V193.142H114.123C113.987 193.142 113.901 193.076 113.865 192.944L113.79 192.359C113.554 192.62 113.29 192.831 112.997 192.992C112.704 193.149 112.368 193.228 111.989 193.228C111.692 193.228 111.429 193.179 111.201 193.083C110.975 192.983 110.786 192.843 110.632 192.665C110.479 192.486 110.362 192.27 110.284 192.016C110.209 191.762 110.171 191.482 110.171 191.174V187.711H111.126V191.174C111.126 191.585 111.219 191.903 111.404 192.129C111.594 192.354 111.882 192.466 112.268 192.466C112.55 192.466 112.813 192.4 113.056 192.268C113.302 192.132 113.529 191.946 113.737 191.71V187.711H114.691ZM117.11 188.799C117.282 188.427 117.493 188.138 117.743 187.931C117.993 187.72 118.299 187.614 118.66 187.614C118.774 187.614 118.883 187.627 118.987 187.652C119.094 187.677 119.189 187.716 119.271 187.77L119.201 188.483C119.18 188.572 119.126 188.617 119.04 188.617C118.99 188.617 118.917 188.606 118.821 188.585C118.724 188.563 118.615 188.553 118.494 188.553C118.322 188.553 118.168 188.578 118.032 188.628C117.9 188.678 117.78 188.753 117.673 188.853C117.57 188.949 117.475 189.071 117.389 189.217C117.307 189.36 117.232 189.525 117.164 189.711V193.142H116.204V187.711H116.751C116.855 187.711 116.926 187.73 116.965 187.77C117.005 187.809 117.032 187.877 117.046 187.973L117.11 188.799ZM124.223 186.66C124.191 186.714 124.155 186.755 124.116 186.783C124.08 186.808 124.036 186.821 123.982 186.821C123.921 186.821 123.85 186.79 123.768 186.73C123.685 186.669 123.582 186.603 123.457 186.531C123.335 186.456 123.187 186.388 123.012 186.327C122.84 186.267 122.631 186.236 122.384 186.236C122.152 186.236 121.947 186.269 121.768 186.333C121.593 186.394 121.444 186.478 121.323 186.585C121.205 186.692 121.115 186.819 121.055 186.966C120.994 187.108 120.964 187.264 120.964 187.432C120.964 187.646 121.015 187.825 121.119 187.968C121.226 188.108 121.366 188.227 121.537 188.327C121.712 188.427 121.909 188.515 122.127 188.59C122.349 188.662 122.574 188.737 122.803 188.815C123.035 188.894 123.26 188.983 123.478 189.083C123.7 189.18 123.896 189.303 124.068 189.453C124.243 189.603 124.382 189.787 124.486 190.005C124.593 190.224 124.647 190.492 124.647 190.81C124.647 191.146 124.59 191.462 124.475 191.759C124.361 192.052 124.193 192.307 123.971 192.525C123.753 192.743 123.483 192.915 123.162 193.04C122.844 193.165 122.481 193.228 122.073 193.228C121.573 193.228 121.119 193.138 120.712 192.96C120.304 192.777 119.956 192.533 119.666 192.225L119.966 191.732C119.995 191.693 120.029 191.66 120.068 191.635C120.111 191.607 120.158 191.592 120.208 191.592C120.254 191.592 120.306 191.612 120.363 191.651C120.424 191.687 120.492 191.734 120.567 191.791C120.642 191.848 120.728 191.911 120.824 191.978C120.921 192.046 121.03 192.109 121.151 192.166C121.276 192.223 121.418 192.272 121.575 192.311C121.732 192.347 121.909 192.365 122.106 192.365C122.352 192.365 122.572 192.331 122.765 192.263C122.958 192.195 123.121 192.1 123.253 191.978C123.389 191.853 123.492 191.705 123.564 191.533C123.635 191.362 123.671 191.171 123.671 190.96C123.671 190.727 123.618 190.538 123.51 190.391C123.407 190.241 123.269 190.116 123.097 190.016C122.926 189.916 122.729 189.832 122.508 189.764C122.286 189.693 122.061 189.621 121.832 189.55C121.603 189.475 121.378 189.389 121.157 189.292C120.935 189.196 120.738 189.071 120.567 188.917C120.395 188.763 120.256 188.572 120.149 188.343C120.045 188.111 119.993 187.825 119.993 187.486C119.993 187.214 120.045 186.951 120.149 186.697C120.256 186.444 120.41 186.218 120.61 186.022C120.813 185.825 121.062 185.668 121.355 185.55C121.652 185.432 121.991 185.373 122.374 185.373C122.803 185.373 123.192 185.441 123.542 185.577C123.896 185.713 124.207 185.909 124.475 186.167L124.223 186.66ZM129.494 189.834C129.494 189.612 129.462 189.41 129.398 189.228C129.337 189.042 129.246 188.883 129.124 188.751C129.006 188.615 128.861 188.511 128.69 188.44C128.518 188.365 128.324 188.327 128.105 188.327C127.648 188.327 127.285 188.461 127.017 188.729C126.753 188.994 126.588 189.362 126.524 189.834H129.494ZM130.266 192.381C130.148 192.524 130.007 192.649 129.843 192.756C129.678 192.86 129.501 192.945 129.312 193.013C129.126 193.081 128.933 193.131 128.733 193.163C128.533 193.199 128.334 193.217 128.138 193.217C127.762 193.217 127.416 193.154 127.098 193.029C126.783 192.901 126.51 192.715 126.277 192.472C126.048 192.225 125.87 191.921 125.741 191.56C125.612 191.199 125.548 190.785 125.548 190.316C125.548 189.938 125.605 189.584 125.72 189.255C125.838 188.926 126.006 188.642 126.224 188.402C126.442 188.159 126.708 187.97 127.022 187.834C127.337 187.695 127.691 187.625 128.084 187.625C128.409 187.625 128.71 187.68 128.985 187.791C129.264 187.898 129.503 188.056 129.703 188.263C129.907 188.467 130.066 188.72 130.18 189.024C130.295 189.325 130.352 189.668 130.352 190.054C130.352 190.204 130.336 190.304 130.304 190.354C130.272 190.404 130.211 190.429 130.121 190.429H126.492C126.502 190.772 126.549 191.071 126.631 191.324C126.717 191.578 126.835 191.791 126.985 191.962C127.135 192.13 127.314 192.257 127.521 192.343C127.728 192.425 127.961 192.466 128.218 192.466C128.458 192.466 128.663 192.44 128.835 192.386C129.01 192.329 129.16 192.268 129.285 192.204C129.41 192.139 129.514 192.08 129.596 192.027C129.682 191.97 129.755 191.941 129.816 191.941C129.894 191.941 129.955 191.971 129.998 192.032L130.266 192.381ZM132.511 185.244V193.142H131.556V185.244H132.511ZM134.412 193.142V188.526L133.812 188.456C133.737 188.438 133.674 188.411 133.624 188.376C133.578 188.336 133.554 188.281 133.554 188.209V187.818H134.412V187.293C134.412 186.982 134.455 186.706 134.541 186.467C134.63 186.224 134.755 186.02 134.916 185.856C135.081 185.688 135.277 185.561 135.506 185.475C135.735 185.389 135.992 185.346 136.278 185.346C136.521 185.346 136.744 185.382 136.948 185.454L136.927 185.931C136.92 186.017 136.871 186.063 136.782 186.07C136.696 186.077 136.58 186.081 136.433 186.081C136.269 186.081 136.119 186.102 135.983 186.145C135.851 186.188 135.736 186.258 135.64 186.354C135.543 186.451 135.468 186.578 135.415 186.735C135.365 186.892 135.34 187.087 135.34 187.319V187.818H136.905V188.51H135.372V193.142H134.412Z" fill="#00296B"/>
<path d="M17.6805 322.514C17.6805 342.068 3.48756 357.92 -14.0203 357.92C-31.5282 357.92 -45.7212 342.068 -45.7212 322.514C-45.7212 302.959 -31.5282 287.108 -14.0203 287.108C3.48756 287.108 17.6805 302.959 17.6805 322.514Z" fill="#FFEFC2"/>
<path d="M67.3875 303.536C67.3875 328.566 49.2205 348.856 26.8104 348.856C4.40026 348.856 -13.7667 328.566 -13.7667 303.536C-13.7667 278.507 4.40026 258.216 26.8104 258.216C49.2205 258.216 67.3875 278.507 67.3875 303.536Z" fill="#FFEFC2"/>
<path d="M117.602 322.514C117.602 347.7 99.4347 368.117 77.0246 368.117C54.6145 368.117 36.4475 347.7 36.4475 322.514C36.4475 297.328 54.6145 276.911 77.0246 276.911C99.4347 276.911 117.602 297.328 117.602 322.514Z" fill="#FFEFC2"/>
<path d="M167.816 341.208C167.816 366.394 149.649 386.812 127.239 386.812C104.829 386.812 86.6616 366.394 86.6616 341.208C86.6616 316.022 104.829 295.605 127.239 295.605C149.649 295.605 167.816 316.022 167.816 341.208Z" fill="#FFEFC2"/>
<path d="M220.566 303.253C220.566 328.439 202.399 348.856 179.989 348.856C157.579 348.856 139.412 328.439 139.412 303.253C139.412 278.067 157.579 257.65 179.989 257.65C202.399 257.65 220.566 278.067 220.566 303.253Z" fill="#FFEFC2"/>
<path d="M69.7071 265.964L69.7141 265.967L72.2592 259.951L66.0865 258.295L63.7479 263.637C63.5906 263.301 63.3189 263.031 62.9812 262.877C62.6435 262.722 62.2619 262.693 61.9046 262.794C61.5472 262.895 61.2375 263.12 61.0306 263.428C60.8237 263.736 60.7331 264.108 60.7752 264.477C60.8172 264.846 60.989 265.188 61.26 265.442C61.5309 265.696 61.8833 265.845 62.2542 265.863C62.6251 265.881 62.9903 265.767 63.2846 265.541C63.5789 265.314 63.7831 264.99 63.8607 264.627L63.8659 264.63L66.3756 258.897L71.5667 260.289L69.5548 265.045C69.3867 264.712 69.1047 264.45 68.7599 264.306C68.4152 264.163 68.0305 264.148 67.6755 264.264C67.3206 264.38 67.0189 264.619 66.8252 264.938C66.6314 265.257 66.5585 265.635 66.6195 266.004C66.6805 266.372 66.8715 266.706 67.1578 266.946C67.4441 267.186 67.8067 267.315 68.1801 267.31C68.5534 267.305 68.9127 267.167 69.1929 266.92C69.473 266.673 69.6554 266.334 69.7071 265.964V265.964Z" fill="#00509D"/>
<path d="M92.9403 280.709L92.9473 280.712L95.4924 274.695L89.3197 273.04L86.9811 278.381C86.8238 278.045 86.552 277.775 86.2143 277.621C85.8767 277.467 85.4951 277.437 85.1377 277.538C84.7804 277.639 84.4706 277.864 84.2637 278.172C84.0568 278.481 83.9663 278.852 84.0083 279.221C84.0503 279.59 84.2222 279.932 84.4931 280.186C84.7641 280.44 85.1165 280.589 85.4873 280.607C85.8582 280.625 86.2235 280.511 86.5177 280.285C86.812 280.058 87.0162 279.734 87.0938 279.371L87.099 279.374L89.6088 273.641L94.7999 275.033L92.788 279.789C92.6199 279.456 92.3379 279.194 91.9931 279.05C91.6483 278.907 91.2636 278.892 90.9087 279.008C90.5538 279.124 90.2521 279.363 90.0584 279.682C89.8646 280.001 89.7917 280.379 89.8527 280.748C89.9137 281.116 90.1047 281.45 90.3909 281.69C90.6772 281.93 91.0399 282.059 91.4133 282.054C91.7866 282.049 92.1459 281.911 92.426 281.664C92.7062 281.417 92.8886 281.078 92.9403 280.709V280.709Z" fill="#00509D"/>
<path d="M78.0434 265.247L78.0475 265.249L80.0611 260.649L79.7017 260.492L77.956 264.479C77.834 264.218 77.6233 264.009 77.3615 263.89C77.0997 263.77 76.8038 263.747 76.5267 263.825C76.2497 263.904 76.0095 264.078 75.849 264.317C75.6886 264.556 75.6184 264.845 75.651 265.131C75.6836 265.417 75.8169 265.682 76.0269 265.879C76.237 266.076 76.5103 266.191 76.7978 266.205C77.0854 266.219 77.3686 266.131 77.5968 265.955C77.8249 265.779 77.9833 265.528 78.0434 265.247V265.247Z" fill="#00509D"/>
<path d="M85.6633 268.467C85.8088 268.241 85.875 267.973 85.8514 267.706C85.8278 267.438 85.7159 267.186 85.5332 266.988C85.3504 266.791 85.1073 266.66 84.8421 266.617C84.5769 266.573 84.3047 266.619 84.0683 266.747C83.8319 266.874 83.6447 267.077 83.5363 267.323C83.428 267.569 83.4045 267.844 83.4696 268.105C83.5347 268.366 83.6847 268.598 83.8959 268.764C84.1072 268.93 84.3678 269.021 84.6366 269.023L81.7451 272.277L82.0384 272.537L85.3737 268.784L85.3704 268.781C85.4861 268.695 85.5853 268.589 85.6633 268.467V268.467Z" fill="#00509D"/>
<path d="M4.68339 267.019L12.5955 264.408C12.5955 264.408 18.2681 259.361 20.1704 255.576C22.0727 251.791 27.1537 245.592 27.1537 245.592L28.3535 241.856C28.3535 241.856 31.9907 241.651 31.14 245.155C30.2892 248.66 27.9357 252.781 27.9357 252.781C27.9357 252.781 25.2023 258.085 26.8591 260.197L30.5198 275.316C30.5198 275.316 20.9317 279.723 14.862 278.736L-0.595442 283.457L4.68339 267.019Z" fill="#F8C49E"/>
<path d="M43.7702 259.823L43.9816 259.891C45.8861 260.503 46.2345 263.095 44.522 264.129C43.9708 264.462 43.2558 264.585 42.3305 264.306L43.7702 259.823Z" fill="#F8C49E"/>
<path d="M42.3306 264.306L42.542 264.374C44.4465 264.986 44.7949 267.578 43.0824 268.612C42.5312 268.945 41.8163 269.069 40.891 268.79L42.3306 264.306Z" fill="#F8C49E"/>
<path d="M40.8909 268.79L41.1023 268.857C43.0068 269.469 43.3552 272.062 41.6427 273.096C41.0915 273.428 40.3766 273.552 39.4513 273.273L40.8909 268.79Z" fill="#F8C49E"/>
<path d="M39.4512 273.273L39.6626 273.34C41.5671 273.952 41.9155 276.545 40.203 277.579C39.6518 277.911 38.9369 278.035 38.0116 277.756L39.4512 273.273Z" fill="#F8C49E"/>
<path d="M27.585 253.445L27.7702 253.504L29.4005 248.428C29.5244 248.042 29.723 247.684 29.9851 247.375C30.2472 247.066 30.5676 246.812 30.928 246.627C31.2885 246.441 31.6818 246.329 32.0856 246.296C32.4895 246.263 32.8959 246.309 33.2816 246.433L44.0351 249.887C44.4209 250.01 44.7785 250.209 45.0875 250.471C45.3965 250.733 45.6508 251.054 45.836 251.414C46.0212 251.775 46.1336 252.168 46.1667 252.572C46.1999 252.976 46.1532 253.382 46.0293 253.768L37.0858 281.618C36.9619 282.004 36.7632 282.361 36.5011 282.67C36.239 282.979 35.9186 283.234 35.5582 283.419C35.1978 283.604 34.8045 283.717 34.4006 283.75C33.9968 283.783 33.5904 283.736 33.2046 283.612L22.4512 280.159C22.0654 280.035 21.7078 279.837 21.3988 279.574C21.0898 279.312 20.8354 278.992 20.6503 278.631C20.4651 278.271 20.3527 277.878 20.3196 277.474C20.2864 277.07 20.3331 276.663 20.457 276.278L26.6098 257.118L26.4246 257.058L27.585 253.445Z" fill="#3F3D56"/>
<path d="M30.0192 248.649L21.089 276.458C20.985 276.783 20.9544 277.127 20.9993 277.466C21.0442 277.805 21.1635 278.129 21.3487 278.416C21.3897 278.48 21.434 278.541 21.4814 278.6C21.7641 278.955 22.1458 279.218 22.5783 279.356L33.3835 282.826C33.5585 282.883 33.7398 282.918 33.9233 282.931C34.4382 282.968 34.9505 282.831 35.3783 282.542C35.806 282.253 36.1242 281.828 36.282 281.337L45.2122 253.528C45.3991 252.946 45.3471 252.314 45.0678 251.77C44.7885 251.227 44.3048 250.816 43.723 250.629L42.4118 250.208C42.4256 250.387 42.3951 250.567 42.323 250.731C42.251 250.896 42.1396 251.04 41.9987 251.151C41.8578 251.263 41.6917 251.337 41.5151 251.369C41.3384 251.401 41.1567 251.389 40.9858 251.334L34.8255 249.356C34.6547 249.301 34.5001 249.205 34.3751 249.076C34.2502 248.947 34.1588 248.79 34.109 248.617C34.0592 248.445 34.0525 248.263 34.0894 248.087C34.1264 247.912 34.2059 247.748 34.321 247.61L32.9178 247.16C32.3359 246.973 31.7036 247.025 31.1601 247.304C30.6165 247.583 30.2061 248.067 30.0192 248.649V248.649Z" fill="#003F88"/>
<path d="M33.8582 270.578C33.8582 270.578 31.8513 273.185 32.1463 275.1C32.4414 277.015 29.7144 278.219 29.7144 278.219C29.7144 278.219 25.0839 273.612 26.2452 272.424C27.4065 271.237 29.1906 269.73 29.3334 268.475L33.8582 270.578Z" fill="#FFD7BA"/>
<path d="M31.4363 271.036C29.3535 270.367 28.2073 268.136 28.8763 266.053C29.5453 263.97 31.776 262.823 33.8588 263.492C35.9416 264.161 37.0877 266.392 36.4188 268.475C35.7498 270.558 33.5191 271.705 31.4363 271.036Z" fill="#FFD7BA"/>
<path d="M21.0651 278.145C21.1236 278.303 21.1993 278.454 21.2909 278.596C21.3319 278.66 21.3762 278.721 21.4236 278.78C21.6973 279.123 22.091 279.33 22.5405 279.474L32.0844 282.539L33.3907 277.905L33.0868 275.207C32.7887 275.317 32.481 275.4 32.1677 275.453C32.0932 275.467 32.0149 275.48 31.9338 275.491C30.786 275.652 29.0262 275.552 27.8292 273.871C27.4525 273.342 27.1316 272.656 26.9025 271.772L23.4275 272.495L22.6932 274.251L21.0651 278.145Z" fill="white"/>
<path d="M32.4654 273.061L32.1176 274.651L31.9337 275.491L31.6604 276.742L30.4898 282.096L33.3256 283.006C33.5006 283.063 33.6819 283.098 33.8654 283.111L36.6442 278.299L36.6186 278.267L32.4654 273.061Z" fill="#2F2E41"/>
<path d="M22.8009 271.127L21.0311 276.638C20.9272 276.963 20.8965 277.308 20.9414 277.646C20.9864 277.985 21.1057 278.309 21.2909 278.596C21.3318 278.66 21.3761 278.721 21.4236 278.78C21.7062 279.135 22.088 279.398 22.5204 279.537L26.3149 280.755C26.7914 278.987 27.191 277.24 27.4953 275.704C27.6244 275.05 27.7363 274.434 27.8292 273.871C28.129 272.057 28.2315 270.792 28.0851 270.57L26.5037 271.012L22.8009 271.127Z" fill="#2F2E41"/>
<path d="M32.571 281.672L32.3888 282.706L33.3257 283.006C33.5008 283.063 33.682 283.098 33.8655 283.111C34.3804 283.148 34.8928 283.011 35.3205 282.722C35.7482 282.433 36.0665 282.008 36.2243 281.517L36.2882 281.318L36.762 278.337L36.6187 278.267L35.9749 277.954L32.571 281.672Z" fill="#2F2E41"/>
<path d="M22.5703 271.845L21.0313 276.638C20.9273 276.963 20.8967 277.308 20.9416 277.646C20.9865 277.985 21.1058 278.309 21.291 278.596C21.3319 278.66 21.3762 278.721 21.4237 278.78L22.806 276.456L22.6933 274.251L22.5703 271.845Z" fill="#2F2E41"/>
<path d="M30.1468 262.698C31.0145 261.955 32.1263 261.559 33.2683 261.586L33.8376 262.446L33.7694 261.635C34.0322 261.677 34.2904 261.744 34.5407 261.834L34.9454 262.942L34.935 261.994C36.0775 262.529 37.0016 263.541 37.3702 264.752C37.8413 266.299 37.4242 268.106 36.1517 269.104C36.1486 268.3 36.0805 267.525 36.0774 266.72C36.0152 266.726 35.8085 266.658 35.5152 266.543L35.443 265.778L35.1556 266.396C34.2872 266.031 33.017 265.435 32.2204 265.006L32.4614 264.539L31.8368 264.791C31.5965 264.648 31.4599 264.544 31.4859 264.507C30.5299 265.32 29.6974 265.769 28.7414 266.582C28.9624 265.073 28.9227 263.746 30.1468 262.698Z" fill="#2F2E41"/>
<path d="M29.1343 266.568C28.9933 266.523 28.9524 266.258 29.043 265.976C29.1335 265.694 29.3212 265.502 29.4622 265.547C29.6032 265.592 29.6441 265.858 29.5535 266.14C29.463 266.422 29.2752 266.614 29.1343 266.568Z" fill="#FFB8B8"/>
<path d="M16.7112 276.72C14.1153 275.886 13.5238 270.499 15.3901 264.687C17.2564 258.876 20.8738 254.84 23.4697 255.674C26.0656 256.507 26.6571 261.895 24.7908 267.706C22.9245 273.518 19.3071 277.553 16.7112 276.72Z" fill="#F8C49E"/>
<path opacity="0.2" d="M41.2146 258.487C41.4608 258.566 41.725 258.571 41.9737 258.5C42.2224 258.429 42.4445 258.285 42.6118 258.088C42.7791 257.891 42.8842 257.648 42.9137 257.391C42.9432 257.134 42.8959 256.874 42.7777 256.644C42.6595 256.414 42.4757 256.224 42.2496 256.099C42.0235 255.973 41.7652 255.917 41.5075 255.939C41.2497 255.96 41.004 256.057 40.8014 256.218C40.5988 256.379 40.4484 256.596 40.3694 256.842C40.2637 257.172 40.2934 257.531 40.4518 257.84C40.6103 258.148 40.8846 258.381 41.2146 258.487V258.487ZM41.9744 256.121C42.196 256.192 42.3916 256.328 42.5363 256.51C42.6811 256.692 42.7685 256.914 42.7875 257.146C42.8066 257.378 42.7564 257.61 42.6433 257.814C42.5303 258.017 42.3594 258.183 42.1524 258.289C41.9453 258.395 41.7114 258.438 41.4801 258.411C41.2488 258.385 41.0306 258.29 40.8531 258.14C40.6756 257.989 40.5467 257.789 40.4828 257.565C40.4188 257.342 40.4227 257.104 40.4939 256.882C40.5896 256.585 40.7993 256.338 41.0768 256.196C41.3544 256.053 41.6772 256.026 41.9744 256.121V256.121Z" fill="black"/>
<path opacity="0.2" d="M42.1526 257.278C42.0495 257.244 41.9927 257.134 42.0258 257.031C42.059 256.928 42.1694 256.871 42.2726 256.904C42.3757 256.937 42.4325 257.048 42.3994 257.151C42.3662 257.254 42.2558 257.311 42.1526 257.278Z" fill="black"/>
<path opacity="0.2" d="M41.2188 256.978C41.1156 256.944 41.0589 256.834 41.092 256.731C41.1251 256.628 41.2356 256.571 41.3387 256.604C41.4419 256.637 41.4987 256.748 41.4655 256.851C41.4324 256.954 41.3219 257.011 41.2188 256.978Z" fill="black"/>
<path opacity="0.2" d="M41.0387 257.538L41.9726 257.838C41.9891 257.843 42.007 257.842 42.0225 257.834C42.0379 257.826 42.0495 257.812 42.0548 257.796C42.0601 257.779 42.0587 257.761 42.0507 257.746C42.0428 257.73 42.0291 257.719 42.0126 257.713L41.0787 257.413C41.0622 257.408 41.0443 257.41 41.0288 257.418C41.0134 257.425 41.0018 257.439 40.9965 257.456C40.9912 257.472 40.9926 257.49 41.0006 257.506C41.0085 257.521 41.0222 257.533 41.0387 257.538V257.538Z" fill="black"/>
<path opacity="0.2" d="M30.3819 255.009C30.6282 255.088 30.8924 255.092 31.1411 255.021C31.3898 254.95 31.6118 254.807 31.7791 254.609C31.9465 254.412 32.0515 254.17 32.0811 253.913C32.1106 253.656 32.0633 253.396 31.9451 253.166C31.8269 252.935 31.6431 252.746 31.417 252.62C31.1909 252.494 30.9326 252.439 30.6748 252.46C30.417 252.481 30.1713 252.578 29.9687 252.739C29.7662 252.9 29.6158 253.117 29.5367 253.364C29.4311 253.694 29.4607 254.053 29.6192 254.361C29.7776 254.669 30.0519 254.902 30.3819 255.009V255.009ZM31.1418 252.643C31.3634 252.714 31.5589 252.849 31.7037 253.031C31.8484 253.214 31.9358 253.435 31.9549 253.667C31.9739 253.899 31.9238 254.131 31.8107 254.335C31.6976 254.539 31.5268 254.704 31.3197 254.81C31.1127 254.917 30.8787 254.959 30.6475 254.933C30.4162 254.906 30.198 254.812 30.0205 254.661C29.843 254.511 29.7141 254.311 29.6501 254.087C29.5862 253.863 29.59 253.625 29.6612 253.404C29.757 253.106 29.9666 252.86 30.2442 252.717C30.5218 252.574 30.8445 252.548 31.1418 252.643V252.643Z" fill="black"/>
<path opacity="0.2" d="M31.32 253.799C31.2168 253.766 31.1601 253.655 31.1932 253.552C31.2263 253.449 31.3368 253.392 31.4399 253.425C31.5431 253.458 31.5999 253.569 31.5667 253.672C31.5336 253.775 31.4231 253.832 31.32 253.799Z" fill="black"/>
<path opacity="0.2" d="M30.3861 253.499C30.283 253.466 30.2262 253.355 30.2593 253.252C30.2925 253.149 30.403 253.092 30.5061 253.125C30.6093 253.158 30.666 253.269 30.6329 253.372C30.5998 253.475 30.4893 253.532 30.3861 253.499Z" fill="black"/>
<path opacity="0.2" d="M30.1662 254.184C30.1771 254.187 30.1887 254.188 30.1999 254.185C30.3568 254.145 30.522 254.149 30.6764 254.199C30.8307 254.248 30.9678 254.341 31.0716 254.465C31.0773 254.472 31.0843 254.477 31.0921 254.481C31.0999 254.484 31.1083 254.486 31.1169 254.487C31.1255 254.487 31.1341 254.486 31.1421 254.483C31.1502 254.48 31.1577 254.476 31.1641 254.47C31.1704 254.464 31.1756 254.457 31.1792 254.449C31.1829 254.442 31.185 254.433 31.1854 254.425C31.1858 254.416 31.1845 254.407 31.1816 254.399C31.1787 254.391 31.1742 254.384 31.1684 254.377C31.0489 254.236 30.8922 254.131 30.7162 254.075C30.5401 254.018 30.3517 254.012 30.1724 254.058C30.1583 254.061 30.1456 254.068 30.1363 254.079C30.127 254.09 30.1215 254.104 30.1208 254.118C30.1201 254.133 30.1242 254.147 30.1324 254.159C30.1406 254.171 30.1525 254.179 30.1662 254.184V254.184Z" fill="black"/>
<path d="M35.324 258.011C35.824 258.172 36.3603 258.18 36.8653 258.036C37.3702 257.892 37.821 257.601 38.1607 257.2C38.5004 256.8 38.7138 256.308 38.7737 255.786C38.8337 255.264 38.7376 254.736 38.4976 254.269C38.2576 253.802 37.8845 253.416 37.4254 253.161C36.9664 252.906 36.442 252.793 35.9186 252.836C35.3952 252.879 34.8964 253.077 34.4851 253.403C34.0738 253.73 33.7685 254.171 33.6079 254.671C33.3934 255.342 33.4536 256.07 33.7753 256.696C34.097 257.322 34.654 257.795 35.324 258.011ZM36.8667 253.207C37.3166 253.352 37.7137 253.626 38.0075 253.997C38.3014 254.367 38.4789 254.816 38.5175 255.287C38.5562 255.758 38.4543 256.23 38.2248 256.643C37.9953 257.057 37.6484 257.392 37.228 257.608C36.8076 257.825 36.3326 257.911 35.8631 257.857C35.3935 257.803 34.9505 257.611 34.5901 257.305C34.2297 257 33.968 256.594 33.8382 256.139C33.7083 255.685 33.7162 255.202 33.8607 254.752C34.0551 254.149 34.4808 253.648 35.0443 253.358C35.6079 253.068 36.2632 253.014 36.8667 253.207L36.8667 253.207Z" fill="white"/>
<path d="M37.2283 255.555C37.0189 255.487 36.9036 255.263 36.9709 255.054C37.0381 254.844 37.2625 254.729 37.4719 254.796C37.6813 254.863 37.7965 255.088 37.7293 255.297C37.662 255.507 37.4377 255.622 37.2283 255.555Z" fill="white"/>
<path d="M35.3323 254.946C35.1229 254.879 35.0076 254.654 35.0749 254.445C35.1422 254.235 35.3665 254.12 35.5759 254.187C35.7853 254.255 35.9006 254.479 35.8333 254.688C35.766 254.898 35.5417 255.013 35.3323 254.946Z" fill="white"/>
<path d="M35.7381 256.717C36.0781 256.826 36.4782 256.818 36.9382 256.694C36.9721 256.685 37.001 256.663 37.0185 256.632C37.036 256.602 37.0407 256.565 37.0315 256.531C37.0223 256.497 37 256.468 36.9695 256.451C36.939 256.433 36.9028 256.429 36.8688 256.438C36.0594 256.657 35.4875 256.477 35.1202 255.887C35.1016 255.857 35.0719 255.836 35.0376 255.828C35.0033 255.82 34.9673 255.826 34.9374 255.845C34.9076 255.863 34.8863 255.893 34.8783 255.927C34.8703 255.961 34.8763 255.997 34.8948 256.027C35.1118 256.376 35.3938 256.606 35.7381 256.717Z" fill="white"/>
<path d="M112.404 307.378C113.875 307.378 115.067 306.186 115.067 304.715C115.067 303.244 113.875 302.052 112.404 302.052C110.933 302.052 109.741 303.244 109.741 304.715C109.741 306.186 110.933 307.378 112.404 307.378Z" fill="white"/>
<path d="M112.404 302.052C111.877 302.052 111.362 302.208 110.925 302.501C110.487 302.793 110.145 303.209 109.944 303.696C109.742 304.182 109.689 304.718 109.792 305.235C109.895 305.751 110.149 306.226 110.521 306.598C110.893 306.97 111.368 307.224 111.885 307.327C112.401 307.43 112.937 307.377 113.423 307.175C113.91 306.974 114.326 306.632 114.618 306.194C114.911 305.757 115.067 305.242 115.067 304.715C115.067 304.009 114.787 303.331 114.287 302.832C113.788 302.332 113.11 302.052 112.404 302.052V302.052ZM111.766 305.878C111.766 305.898 111.759 305.917 111.744 305.931C111.73 305.945 111.711 305.953 111.691 305.953H111.091C111.071 305.953 111.052 305.945 111.038 305.931C111.024 305.917 111.016 305.898 111.016 305.878V304.452C111.016 304.433 111.024 304.413 111.038 304.399C111.052 304.385 111.071 304.377 111.091 304.377H111.691C111.711 304.377 111.73 304.385 111.744 304.399C111.759 304.413 111.766 304.433 111.766 304.452V305.878ZM113.792 304.752C113.792 304.812 113.768 304.869 113.726 304.912C113.684 304.954 113.626 304.978 113.567 304.978V304.981C113.609 304.99 113.647 305.013 113.675 305.046C113.702 305.08 113.717 305.122 113.717 305.165C113.717 305.208 113.702 305.25 113.675 305.284C113.647 305.317 113.609 305.34 113.567 305.349V305.428C113.607 305.428 113.645 305.443 113.673 305.472C113.701 305.5 113.717 305.538 113.717 305.578C113.717 305.617 113.701 305.656 113.673 305.684C113.645 305.712 113.607 305.728 113.567 305.728H112.066C112.047 305.728 112.028 305.72 112.013 305.706C111.999 305.692 111.991 305.673 111.991 305.653V304.452C111.991 304.077 112.592 303.552 112.592 303.552V303.369C112.592 303.314 112.612 303.26 112.649 303.218C112.686 303.177 112.737 303.15 112.792 303.144C112.847 303.137 112.903 303.151 112.948 303.183C112.994 303.215 113.026 303.262 113.039 303.316L113.042 303.327C113.071 303.592 113.006 303.858 112.859 304.079H113.321C113.328 304.079 113.335 304.077 113.342 304.077H113.567C113.507 304.197 113.497 304.335 113.539 304.462C113.582 304.588 113.672 304.693 113.792 304.752V304.752Z" fill="#00509D"/>
<path d="M116.31 292.997C118.369 292.997 120.038 291.328 120.038 289.269C120.038 287.21 118.369 285.541 116.31 285.541C114.251 285.541 112.581 287.21 112.581 289.269C112.581 291.328 114.251 292.997 116.31 292.997Z" fill="white"/>
<path d="M116.31 285.541C115.572 285.541 114.852 285.759 114.238 286.169C113.625 286.579 113.147 287.161 112.865 287.842C112.583 288.524 112.509 289.273 112.653 289.996C112.797 290.72 113.152 291.384 113.673 291.905C114.195 292.427 114.859 292.782 115.582 292.926C116.306 293.07 117.055 292.996 117.737 292.714C118.418 292.431 119 291.953 119.41 291.34C119.819 290.727 120.038 290.006 120.038 289.269C120.038 288.28 119.645 287.332 118.946 286.633C118.247 285.934 117.299 285.541 116.31 285.541ZM115.417 290.897C115.417 290.925 115.406 290.951 115.386 290.971C115.367 290.991 115.34 291.002 115.312 291.002H114.472C114.444 291.002 114.417 290.991 114.398 290.971C114.378 290.951 114.367 290.925 114.367 290.897V288.901C114.367 288.874 114.378 288.847 114.398 288.827C114.417 288.807 114.444 288.796 114.472 288.796H115.312C115.34 288.796 115.367 288.807 115.386 288.827C115.406 288.847 115.417 288.874 115.417 288.901V290.897ZM118.253 289.322C118.253 289.405 118.219 289.485 118.16 289.544C118.101 289.603 118.021 289.637 117.938 289.637V289.642C117.997 289.654 118.05 289.686 118.088 289.733C118.127 289.78 118.148 289.839 118.148 289.899C118.148 289.96 118.127 290.018 118.088 290.065C118.05 290.112 117.997 290.144 117.938 290.156V290.267C117.993 290.267 118.047 290.289 118.086 290.328C118.126 290.368 118.148 290.421 118.148 290.477C118.148 290.532 118.126 290.586 118.086 290.625C118.047 290.665 117.993 290.687 117.938 290.687H115.837C115.809 290.687 115.783 290.676 115.763 290.656C115.743 290.636 115.732 290.61 115.732 290.582V288.901C115.732 288.376 116.572 287.641 116.572 287.641V287.385C116.572 287.307 116.601 287.232 116.652 287.174C116.704 287.116 116.775 287.078 116.853 287.069C116.93 287.06 117.008 287.079 117.072 287.124C117.136 287.168 117.181 287.235 117.199 287.311C117.2 287.316 117.201 287.321 117.202 287.326C117.307 287.851 116.947 288.379 116.947 288.379H117.594C117.603 288.378 117.613 288.376 117.623 288.376H117.938C118.021 288.376 118.101 288.41 118.16 288.469C118.219 288.528 118.253 288.608 118.253 288.691C118.253 288.775 118.219 288.855 118.16 288.914C118.101 288.973 118.021 289.006 117.938 289.006C118.021 289.006 118.101 289.04 118.16 289.099C118.219 289.158 118.253 289.238 118.253 289.322V289.322Z" fill="#00509D"/>
<path d="M117.555 310.756C117.519 310.789 117.472 310.808 117.423 310.808C117.373 310.808 117.326 310.789 117.29 310.756L117.188 310.663C116.354 309.898 115.872 309.401 115.872 308.781C115.872 308.275 116.192 307.885 116.694 307.885C116.833 307.885 116.97 307.917 117.096 307.976C117.222 308.035 117.334 308.12 117.423 308.227C117.512 308.12 117.624 308.035 117.749 307.976C117.875 307.917 118.012 307.886 118.151 307.885C118.654 307.885 118.973 308.274 118.973 308.781C118.973 309.4 118.491 309.897 117.657 310.663L117.555 310.756Z" fill="#003F88"/>
<path d="M111.463 300.152C111.394 300.216 111.303 300.252 111.209 300.252C111.114 300.252 111.023 300.216 110.954 300.152L110.759 299.975C109.161 298.509 108.238 297.556 108.238 296.368C108.238 295.399 108.851 294.651 109.813 294.651C110.079 294.652 110.342 294.711 110.583 294.825C110.824 294.938 111.038 295.102 111.209 295.306C111.38 295.102 111.594 294.938 111.835 294.825C112.076 294.711 112.339 294.652 112.605 294.651C113.567 294.651 114.179 295.397 114.179 296.368C114.179 297.553 113.256 298.506 111.658 299.975L111.463 300.152Z" fill="#003F88"/>
<path d="M111.717 283.56C111.627 283.643 111.509 283.69 111.386 283.69C111.264 283.69 111.146 283.643 111.056 283.56L110.802 283.33C108.727 281.426 107.528 280.188 107.528 278.646C107.528 277.387 108.324 276.415 109.573 276.415C109.919 276.417 110.26 276.494 110.574 276.641C110.887 276.788 111.164 277.001 111.387 277.266C111.609 277.001 111.887 276.788 112.2 276.641C112.513 276.494 112.854 276.417 113.2 276.415C114.45 276.415 115.245 277.384 115.245 278.646C115.245 280.185 114.046 281.422 111.97 283.33L111.717 283.56Z" fill="#003F88"/>
<path d="M100.519 350.049C100.699 349.389 100.879 348.722 101.24 348.147C101.575 347.66 101.972 347.221 102.421 346.84C103.729 345.64 105.335 344.422 107.068 344.725C107.604 344.845 108.122 345.036 108.608 345.294C108.861 345.412 109.115 345.531 109.375 345.631C110.106 345.94 110.914 346.011 111.688 345.835C112.084 345.728 112.454 345.534 112.846 345.414C113.031 345.358 113.221 345.316 113.414 345.29C113.036 345.119 112.669 344.923 112.315 344.705C110.371 343.501 108.819 341.326 109.036 338.999C109.11 338.217 109.375 337.468 109.638 336.729L110.331 334.793C110.63 333.954 110.941 333.099 111.487 332.402C112.095 331.625 112.961 331.098 113.856 330.706C115.777 329.862 117.876 329.565 119.949 329.277L120.093 329.257V306.623C120.093 306.236 120.245 305.865 120.516 305.591C120.786 305.318 121.153 305.164 121.536 305.164H124.26C124.38 304.42 124.5 303.677 124.621 302.936C124.963 300.819 125.319 298.663 126.284 296.758C126.915 295.511 127.92 294.32 129.274 294.076C129.541 294.051 129.802 293.99 130.052 293.893C130.449 293.696 130.665 293.259 130.97 292.936C131.756 292.103 133.035 292.09 134.089 291.66C135.019 291.286 135.781 290.582 136.628 290.04C137.476 289.499 138.53 289.114 139.468 289.466C139.468 289.535 139.48 289.605 139.487 289.672L140.09 289.391C140.739 289.087 141.401 288.775 141.922 288.275C142.592 287.637 142.949 286.791 143.227 285.892C143.255 285.799 143.282 285.71 143.311 285.609C142.158 284.42 141.378 282.914 141.067 281.279L140.921 281.758C140.888 281.866 140.85 281.972 140.806 282.076C140.731 282.276 140.607 282.454 140.445 282.592C140.399 282.628 140.348 282.658 140.294 282.681C140.244 282.701 140.192 282.714 140.139 282.721C140.064 282.731 139.988 282.725 139.915 282.705C139.793 282.667 139.681 282.601 139.587 282.513C139.494 282.426 139.421 282.318 139.374 282.198C139.345 282.126 139.324 282.052 139.311 281.975C139.304 281.929 139.299 281.883 139.298 281.837C139.298 281.822 139.298 281.808 139.298 281.793C139.298 281.778 139.298 281.729 139.298 281.698C139.298 281.667 139.298 281.665 139.298 281.647C139.298 281.629 139.298 281.587 139.307 281.556V281.509C139.307 281.472 139.318 281.436 139.325 281.401C139.332 281.366 139.325 281.381 139.325 281.372C139.334 281.326 139.345 281.279 139.354 281.233C139.354 281.222 139.354 281.21 139.354 281.199C139.354 281.188 139.37 281.124 139.379 281.086C139.388 281.047 139.392 281.036 139.397 281.011V281C139.415 280.927 139.431 280.856 139.448 280.783C139.579 280.15 139.612 279.5 139.547 278.857C139.439 277.913 139.267 276.978 139.031 276.058L138.993 275.892C138.979 275.829 138.964 275.765 138.952 275.699C138.923 275.568 138.894 275.437 138.867 275.303L138.802 274.968L138.753 274.669V274.631C138.652 273.953 138.631 273.266 138.69 272.583V272.583C138.773 271.629 139.065 270.727 139.706 270.008C140.158 269.5 140.755 269.124 141.176 268.59C141.569 268.09 141.791 267.474 142.198 266.983C143.324 265.625 146.214 264.578 147.987 264.396C150.018 264.188 153.299 264.713 154.937 265.926C155.543 266.372 155.958 267.02 156.38 267.632C157.155 268.772 158.036 269.91 159.278 270.55C159.747 270.79 160.285 270.973 160.597 271.392C160.783 271.677 160.903 271.999 160.949 272.337C161.188 273.524 161.312 274.732 161.32 275.943V275.943C161.32 276.095 161.32 276.246 161.32 276.399C161.317 276.854 161.221 277.302 161.039 277.718C161.01 277.78 160.978 277.84 160.943 277.9L160.922 277.938C160.703 278.254 160.51 278.586 160.344 278.932C160.303 279.029 160.273 279.131 160.256 279.235C160.225 279.502 160.242 279.772 160.307 280.033V280.033C160.307 280.074 160.323 280.114 160.33 280.154L160.346 280.232C160.346 280.26 160.346 280.287 160.361 280.312C160.375 280.391 160.388 280.469 160.399 280.546C160.426 280.757 160.412 280.971 160.359 281.177C160.334 281.291 160.286 281.399 160.217 281.494C160.148 281.588 160.06 281.666 159.958 281.724C159.856 281.774 159.746 281.808 159.634 281.826C159.52 281.846 159.405 281.859 159.293 281.884C159.149 281.917 159.01 281.969 158.88 282.039C158.755 282.1 158.638 282.176 158.532 282.265C158.479 282.314 158.429 282.365 158.382 282.418C158.287 282.529 158.201 282.647 158.126 282.772C158.087 282.837 158.051 282.902 158.018 282.969C157.888 283.233 157.785 283.509 157.709 283.793C157.662 283.963 157.623 284.134 157.588 284.306C157.572 284.382 157.558 284.459 157.545 284.534C157.532 284.608 157.52 284.685 157.509 284.76C157.46 284.757 157.411 284.747 157.365 284.731C157.099 284.634 156.952 284.322 156.869 284.019C156.854 283.968 156.842 283.919 156.831 283.87C156.789 283.688 156.746 283.487 156.704 283.296C155.993 284.822 154.847 286.098 153.413 286.961C153.362 287.112 153.313 287.261 153.27 287.415C153.034 288.241 152.92 289.105 153.33 289.827C153.622 290.339 154.112 290.655 154.661 290.874C154.74 290.767 154.842 290.68 154.958 290.618C155.433 290.378 156.003 290.669 156.401 291.029C157.123 291.689 157.711 292.635 158.66 292.852C159.002 292.932 159.381 292.916 159.666 293.127C159.855 293.307 160.013 293.516 160.133 293.747C160.339 294.046 160.616 294.288 160.939 294.451C161.261 294.613 161.619 294.691 161.979 294.677C162.309 294.661 162.7 294.584 162.926 294.829C163.093 295.011 163.106 295.299 163.286 295.472C163.528 295.713 163.925 295.596 164.262 295.582C164.904 295.554 165.501 295.974 165.868 296.512C166.234 297.05 166.409 297.693 166.589 298.335V298.346C166.635 298.38 166.679 298.417 166.721 298.457C166.896 298.646 167.031 298.868 167.119 299.11C168.578 302.467 169.439 306.059 169.663 309.719C169.659 309.897 169.699 310.074 169.778 310.233C169.859 310.337 169.948 310.435 170.043 310.525C170.129 310.631 170.193 310.753 170.231 310.885C170.269 311.016 170.28 311.154 170.265 311.29C170.249 311.426 170.207 311.557 170.14 311.677C170.073 311.796 169.983 311.9 169.876 311.983C169.824 311.888 169.759 311.801 169.683 311.725C169.702 311.808 169.72 311.89 169.733 311.965C169.806 312.497 169.812 313.036 169.753 313.57C169.582 316.103 169.41 318.635 169.235 321.164C169.187 321.881 169.138 322.596 169.073 323.311C168.947 324.694 168.766 326.072 168.532 327.444C168.521 327.506 168.508 327.57 168.492 327.627C169.962 328.099 171.27 328.952 171.82 330.376C172.011 330.869 172.098 331.405 172.332 331.877C172.59 332.395 173.014 332.809 173.296 333.316C173.781 334.187 173.802 335.256 173.626 336.233C173.285 338.139 172.266 339.842 170.92 341.227C170.98 341.227 171.041 341.227 171.1 341.227C171.54 341.277 171.962 341.43 172.332 341.674C175.179 343.355 176.806 346.962 176.212 350.255C176.095 350.899 175.891 351.552 175.466 352.042C175.112 352.432 174.657 352.714 174.152 352.855C173.837 352.951 173.512 353.013 173.184 353.038C170.965 353.22 168.817 352.181 166.593 352.093C165.856 352.081 165.119 352.116 164.387 352.197C163.315 352.287 162.242 352.344 161.167 352.369C159.419 352.411 158.436 351.94 157.321 350.62C157.047 350.292 156.819 349.927 156.641 349.537C155.692 349.482 154.645 349.398 153.887 349.336L153.876 349.442C153.835 349.807 153.771 350.226 153.483 350.456C153.321 350.569 153.136 350.646 152.942 350.68C151.12 351.132 149.276 351.592 147.401 351.592C146.52 351.574 145.642 351.506 144.769 351.388L141.473 351.003C140.513 351.126 139.565 351.335 138.641 351.626C137.689 351.953 136.8 352.438 135.869 352.823C133.704 353.709 131.378 354.026 129.072 354.336C128.679 354.389 128.228 354.425 127.938 354.154C127.563 353.789 127.687 353.18 127.793 352.669C127.837 352.46 127.869 352.25 127.894 352.039C126.339 352.453 124.817 352.987 123.342 353.636L123.084 353.751C123.008 354.148 122.645 354.466 122.297 354.894C122.183 355.075 122.049 355.242 121.899 355.394C121.727 355.507 121.531 355.578 121.327 355.602C118.893 356.06 116.409 356.173 113.944 355.939C113.44 355.869 112.93 355.852 112.422 355.886C112.048 355.937 111.68 356.021 111.321 356.136L109.234 356.741C107.696 357.186 106.121 357.636 104.525 357.536C104.201 357.516 103.879 357.469 103.563 357.396C102.301 357.1 101.125 356.387 100.519 355.24C99.6617 353.681 100.057 351.763 100.519 350.049Z" fill="url(#paint0_linear_208_4377)"/>
<path d="M142.846 343.789C128.601 343.789 117.052 340.524 117.052 336.496C117.052 332.468 128.601 329.202 142.846 329.202C157.092 329.202 168.64 332.468 168.64 336.496C168.64 340.524 157.092 343.789 142.846 343.789Z" fill="#464353"/>
<path opacity="0.1" d="M142.846 343.789C128.601 343.789 117.052 340.524 117.052 336.496C117.052 332.468 128.601 329.202 142.846 329.202C157.092 329.202 168.64 332.468 168.64 336.496C168.64 340.524 157.092 343.789 142.846 343.789Z" fill="black"/>
<path d="M138.221 297.992C139.105 299.719 140.574 301.068 142.359 301.792C143.413 302.181 144.522 302.394 145.644 302.423C146.868 302.48 148.119 302.399 149.269 301.976C150.813 301.411 152.096 300.255 153.057 298.908C154.019 297.56 154.681 296.021 155.256 294.469C155.559 293.662 155.848 292.801 155.705 291.948C154.776 291.734 153.759 291.421 153.279 290.587C152.87 289.873 152.983 289.016 153.22 288.199C153.286 287.967 153.364 287.737 153.441 287.517C153.622 286.988 154.244 285.983 153.802 285.531C153.526 285.245 152.37 285.099 151.971 284.913C150.743 284.34 149.61 283.512 148.261 283.241C147.094 283.006 145.889 283.226 144.724 283.471C144.569 283.493 144.421 283.547 144.287 283.629C144.135 283.759 144.022 283.93 143.963 284.122C143.631 284.938 143.436 285.841 143.169 286.693C142.891 287.584 142.534 288.421 141.865 289.054C141.344 289.548 140.68 289.858 140.03 290.159L138.432 290.899C138.148 291.007 137.89 291.175 137.676 291.393C137.467 291.684 137.343 292.027 137.316 292.385C137.029 294.304 137.346 296.265 138.221 297.992V297.992Z" fill="#FFD7BA"/>
<path opacity="0.1" d="M143.176 286.693C144.449 288.032 146.125 288.907 147.943 289.179C149.76 289.452 151.615 289.107 153.218 288.199C153.285 287.967 153.362 287.737 153.44 287.517C153.62 286.988 154.242 285.983 153.8 285.531C153.525 285.245 152.368 285.099 151.97 284.913C150.741 284.34 149.608 283.512 148.259 283.241C147.092 283.006 145.887 283.226 144.722 283.471C144.567 283.493 144.419 283.547 144.286 283.629C144.133 283.759 144.021 283.93 143.961 284.122C143.638 284.938 143.443 285.841 143.176 286.693Z" fill="black"/>
<path d="M149.159 288.904C144.577 288.904 140.862 285.149 140.862 280.517C140.862 275.884 144.577 272.129 149.159 272.129C153.742 272.129 157.457 275.884 157.457 280.517C157.457 285.149 153.742 288.904 149.159 288.904Z" fill="#FFD7BA"/>
<path d="M123.879 307.739L124.561 303.563C124.906 301.468 125.261 299.333 126.224 297.445C126.857 296.209 127.862 295.031 129.217 294.787C129.484 294.763 129.746 294.701 129.996 294.604C130.393 294.411 130.609 293.977 130.914 293.656C131.701 292.832 132.981 292.819 134.035 292.4C134.965 292.035 135.727 291.333 136.574 290.797C137.422 290.261 138.477 289.885 139.415 290.228C139.567 291.86 139.727 293.529 140.413 295.015C140.859 295.982 141.513 296.837 142.328 297.515C143.143 298.194 144.098 298.681 145.122 298.939C146.147 299.197 147.215 299.22 148.25 299.006C149.285 298.793 150.259 298.349 151.102 297.706C152.709 296.483 153.739 294.595 154.219 292.621C154.336 292.139 154.47 291.587 154.908 291.366C155.382 291.125 155.952 291.417 156.351 291.771C157.072 292.425 157.662 293.363 158.611 293.583C158.954 293.664 159.333 293.647 159.618 293.857C159.807 294.033 159.966 294.241 160.087 294.471C160.294 294.768 160.572 295.007 160.894 295.169C161.216 295.33 161.573 295.407 161.932 295.394C162.262 295.378 162.653 295.301 162.879 295.543C163.047 295.726 163.059 296.01 163.24 296.18C163.483 296.419 163.878 296.302 164.217 296.289C164.859 296.262 165.456 296.678 165.824 297.201C166.192 297.724 166.366 298.372 166.546 298.999C164.574 303.437 162.771 307.881 160.799 312.319C160.707 312.486 160.658 312.674 160.657 312.866C160.696 313.065 160.78 313.252 160.902 313.413C161.869 314.983 161.838 316.958 161.732 318.803C161.625 320.648 161.495 322.598 162.311 324.251C162.532 324.705 162.821 325.121 163.032 325.575C163.526 326.604 163.705 329.893 163.416 330.998H122.637C123.414 328.837 123.118 324.501 122.956 322.207C122.842 320.603 123.136 319 123.262 317.395C123.538 314.119 123.344 311.01 123.879 307.739Z" fill="#00509D"/>
<path d="M169.67 312.516C169.742 313.044 169.749 313.578 169.692 314.108L169.174 321.633C169.125 322.342 169.077 323.05 169.012 323.757C168.887 325.13 168.701 326.492 168.47 327.853C168.465 328.046 168.384 328.229 168.246 328.362C168.107 328.495 167.922 328.567 167.731 328.562C165.449 329.051 163.092 329.031 160.763 328.897C157.209 328.697 153.661 328.239 150.103 328.318C149.186 328.338 148.118 328.318 147.563 327.588C147.007 326.859 147.33 325.679 148.055 325.09C148.78 324.501 149.765 324.361 150.696 324.361C151.928 324.348 153.16 324.525 154.388 324.452C155.516 324.384 156.618 324.109 157.711 323.834L160.777 323.063C160.66 322.123 160.307 321.239 159.971 320.347C159.369 318.767 158.806 317.133 158.795 315.439C158.784 313.745 159.415 311.963 160.788 310.993C161.917 310.196 163.371 310.049 164.747 310.082C165.749 310.111 167.478 309.868 168.393 310.264C169.116 310.585 169.535 311.799 169.67 312.516Z" fill="#FFD7BA"/>
<path d="M121.792 329.722C121.192 329.49 120.53 329.574 119.886 329.662C117.813 329.948 115.71 330.241 113.789 331.078C112.887 331.469 112.029 331.99 111.419 332.758C110.878 333.449 110.562 334.295 110.263 335.128L109.57 337.046C109.307 337.776 109.04 338.52 108.966 339.295C108.749 341.59 110.302 343.755 112.256 344.947C114.209 346.14 116.509 346.565 118.75 347.01C120.99 347.455 123.239 347.947 125.47 348.468C126.511 348.741 127.567 348.951 128.632 349.097C131.021 349.371 133.517 348.968 135.786 349.767C136.688 350.086 137.574 350.56 138.51 350.78C139.132 350.913 139.76 351.009 140.393 351.07L144.688 351.566C145.561 351.684 146.44 351.753 147.321 351.771C149.197 351.771 151.043 351.322 152.864 350.873C153.058 350.839 153.242 350.764 153.406 350.653C153.694 350.423 153.757 350.016 153.799 349.648C153.983 348.018 154.144 346.386 154.282 344.752C154.325 344.222 154.358 343.647 154.071 343.2C153.71 342.653 153.007 342.482 152.365 342.376C149.642 341.926 146.883 341.732 144.125 341.798C143.077 340.739 141.349 340.733 139.976 340.157C139.471 339.923 138.983 339.654 138.514 339.353C136.058 337.905 133.314 337.028 130.481 336.787C129.927 336.77 129.375 336.691 128.838 336.55C127.776 336.217 126.807 335.309 125.716 335.531C125.58 335.154 125.487 334.649 125.175 334.39C125.019 334.257 124.828 334.167 124.686 334.025C124.385 333.717 124.357 333.232 124.403 332.801C124.448 332.371 124.549 331.93 124.439 331.51C124.393 331.352 124.325 331.2 124.238 331.06C123.697 330.116 122.88 329.631 121.792 329.722Z" fill="#464353"/>
<path opacity="0.05" d="M121.792 329.722C121.192 329.49 120.53 329.574 119.886 329.662C117.813 329.948 115.71 330.241 113.789 331.078C112.887 331.469 112.029 331.99 111.419 332.758C110.878 333.449 110.562 334.295 110.263 335.128L109.57 337.046C109.307 337.776 109.04 338.52 108.966 339.295C108.749 341.59 110.302 343.755 112.256 344.947C114.209 346.14 116.509 346.565 118.75 347.01C120.99 347.455 123.239 347.947 125.47 348.468C126.511 348.741 127.567 348.951 128.632 349.097C131.021 349.371 133.517 348.968 135.786 349.767C136.688 350.086 137.574 350.56 138.51 350.78C139.132 350.913 139.76 351.009 140.393 351.07L144.688 351.566C145.561 351.684 146.44 351.753 147.321 351.771C149.197 351.771 151.043 351.322 152.864 350.873C153.058 350.839 153.242 350.764 153.406 350.653C153.694 350.423 153.757 350.016 153.799 349.648C153.983 348.018 154.144 346.386 154.282 344.752C154.325 344.222 154.358 343.647 154.071 343.2C153.71 342.653 153.007 342.482 152.365 342.376C149.642 341.926 146.883 341.732 144.125 341.798C143.077 340.739 141.349 340.733 139.976 340.157C139.471 339.923 138.983 339.654 138.514 339.353C136.058 337.905 133.314 337.028 130.481 336.787C129.927 336.77 129.375 336.691 128.838 336.55C127.776 336.217 126.807 335.309 125.716 335.531C125.58 335.154 125.487 334.649 125.175 334.39C125.019 334.257 124.828 334.167 124.686 334.025C124.385 333.717 124.357 333.232 124.403 332.801C124.448 332.371 124.549 331.93 124.439 331.51C124.393 331.352 124.325 331.2 124.238 331.06C123.697 330.116 122.88 329.631 121.792 329.722Z" fill="black"/>
<path d="M158.892 331.556C158.892 331.738 159.175 331.556 159.201 331.361C159.399 329.886 160.557 328.67 161.906 328.079C163.256 327.488 164.792 327.457 166.254 327.597C168.463 327.809 170.943 328.664 171.751 330.752C171.943 331.241 172.029 331.769 172.264 332.238C172.523 332.752 172.947 333.162 173.229 333.662C173.714 334.526 173.734 335.586 173.559 336.563C173.088 339.171 171.324 341.401 169.186 342.945C167.049 344.49 164.551 345.412 162.06 346.244C155.473 348.44 148.715 350.071 141.857 351.121C140.746 351.291 139.624 351.448 138.56 351.809C137.608 352.132 136.717 352.615 135.786 352.994C133.621 353.873 131.293 354.187 128.986 354.495C128.592 354.546 128.141 354.582 127.851 354.312C127.476 353.96 127.6 353.348 127.707 352.843C128.098 350.922 127.77 348.923 126.785 347.234C126.399 346.577 125.898 345.905 125.97 345.144C126.056 344.258 126.929 343.631 127.799 343.489C128.668 343.346 129.552 343.556 130.425 343.671C130.726 343.711 131.055 343.736 131.318 343.582C131.448 343.493 131.565 343.387 131.668 343.268C132.269 342.681 133.039 342.302 133.867 342.186C134.694 342.069 135.537 342.22 136.275 342.617C136.598 342.799 137.086 342.393 137.422 342.239L141.215 340.504C145.573 338.511 149.953 336.508 154.563 335.247C154.931 335.174 155.281 335.027 155.591 334.814C155.82 334.632 155.985 334.384 156.196 334.182C156.656 333.742 157.296 333.567 157.848 333.255C158.4 332.944 159.019 332.181 158.892 331.556Z" fill="#464353"/>
<path d="M166.649 299.134C166.825 299.32 166.961 299.54 167.049 299.781C168.507 303.103 169.369 306.661 169.593 310.288C169.589 310.465 169.629 310.64 169.71 310.796C169.79 310.901 169.878 310.998 169.975 311.086C170.063 311.192 170.128 311.314 170.168 311.446C170.207 311.578 170.219 311.716 170.203 311.853C170.187 311.99 170.144 312.122 170.075 312.241C170.007 312.36 169.915 312.463 169.805 312.545C169.508 311.978 168.795 311.794 168.162 311.745C165.13 311.502 162.168 312.928 159.127 312.82C159.342 312.071 159.65 311.351 159.825 310.592C160.599 307.224 158.669 303.557 159.852 300.314C160.089 299.664 160.484 299.026 161.106 298.742C161.364 298.637 161.633 298.564 161.909 298.527C162.677 298.386 164.207 297.786 164.95 298.027C165.224 298.116 165.332 298.377 165.559 298.534C165.904 298.758 166.362 298.84 166.649 299.134Z" fill="#00509D"/>
<path d="M121.466 305.771H158.815C159.609 305.771 160.253 306.422 160.253 307.224V330.21C160.253 331.013 159.609 331.664 158.815 331.664H121.466C120.672 331.664 120.028 331.013 120.028 330.21V307.224C120.028 306.422 120.672 305.771 121.466 305.771Z" fill="#3F3D56"/>
<path d="M140.231 319.811C139.633 319.811 139.148 319.322 139.148 318.717C139.148 318.113 139.633 317.623 140.231 317.623C140.828 317.623 141.313 318.113 141.313 318.717C141.313 319.322 140.828 319.811 140.231 319.811Z" fill="white"/>
<path d="M154.892 266.903C155.498 267.346 155.913 267.982 156.335 268.593C157.112 269.722 157.992 270.849 159.235 271.478C159.706 271.717 160.244 271.897 160.556 272.313C160.741 272.594 160.861 272.914 160.907 273.248C161.145 274.425 161.27 275.622 161.279 276.822C161.279 277.42 161.254 278.037 160.992 278.58C160.745 279.091 160.299 279.523 160.207 280.079C160.137 280.513 160.296 280.945 160.352 281.381C160.408 281.817 160.31 282.333 159.912 282.541C159.697 282.622 159.473 282.676 159.244 282.699C158.045 282.969 157.643 284.391 157.46 285.567C157.053 285.544 156.869 285.072 156.784 284.687L155.534 279.069C155.399 278.46 155.173 277.754 154.572 277.541C154.17 277.4 153.73 277.532 153.31 277.568C151.659 277.705 150.263 276.416 148.649 276.06C148.132 275.955 147.604 275.919 147.078 275.954C145.804 276.018 144.323 276.547 144.053 277.749C144.008 277.944 143.981 278.177 143.8 278.274C143.62 278.37 143.431 278.288 143.241 278.274C142.433 278.192 141.957 279.111 141.724 279.862L140.876 282.597C140.75 283.011 140.537 283.498 140.094 283.551C139.684 283.602 139.336 283.21 139.275 282.821C139.213 282.433 139.347 282.03 139.435 281.64C139.834 279.844 139.224 278.006 138.853 276.206C138.481 274.406 138.414 272.339 139.661 270.953C140.113 270.451 140.709 270.077 141.131 269.549C141.524 269.053 141.746 268.444 142.153 267.957C143.281 266.613 146.172 265.575 147.945 265.404C149.971 265.182 153.254 265.701 154.892 266.903Z" fill="#3F3D56"/>
<g opacity="0.1">
<path opacity="0.1" d="M140.086 282.274C140.53 282.22 140.743 281.727 140.869 281.321C141.152 280.408 141.434 279.496 141.717 278.586C141.95 277.833 142.426 276.914 143.234 276.997C143.423 277.018 143.627 277.092 143.793 276.997C143.959 276.903 144.001 276.667 144.046 276.472C144.316 275.269 145.797 274.742 147.071 274.678C147.597 274.643 148.125 274.678 148.642 274.782C150.256 275.147 151.652 276.423 153.303 276.29C153.728 276.255 154.169 276.124 154.565 276.264C155.173 276.476 155.391 277.176 155.527 277.792L156.777 283.409C156.862 283.795 157.046 284.267 157.453 284.289C157.634 283.115 158.038 281.693 159.237 281.423C159.465 281.398 159.689 281.344 159.905 281.264C160.061 281.178 160.184 281.039 160.253 280.872C160.285 281.042 160.323 281.211 160.345 281.381C160.399 281.815 160.303 282.333 159.905 282.541C159.69 282.622 159.465 282.676 159.237 282.699C158.038 282.969 157.635 284.391 157.453 285.568C157.046 285.544 156.862 285.072 156.777 284.687L155.527 279.069C155.391 278.46 155.166 277.754 154.565 277.541C154.163 277.4 153.723 277.532 153.303 277.568C151.652 277.705 150.256 276.416 148.642 276.06C148.125 275.955 147.597 275.919 147.071 275.954C145.797 276.018 144.316 276.547 144.046 277.749C144.001 277.944 143.974 278.177 143.793 278.274C143.613 278.371 143.423 278.288 143.234 278.274C142.426 278.192 141.95 279.111 141.717 279.862C141.436 280.775 141.153 281.687 140.869 282.597C140.743 283.011 140.53 283.498 140.086 283.551C139.677 283.602 139.329 283.21 139.267 282.821C139.24 282.495 139.277 282.166 139.376 281.853C139.44 281.986 139.542 282.097 139.668 282.172C139.795 282.247 139.94 282.283 140.086 282.274V282.274Z" fill="black"/>
<path opacity="0.1" d="M160.206 278.803C160.298 278.247 160.747 277.814 160.99 277.304C161.147 276.959 161.237 276.588 161.257 276.21C161.257 276.414 161.275 276.618 161.277 276.824C161.277 277.422 161.252 278.039 160.99 278.582C160.79 278.996 160.46 279.361 160.294 279.782C160.207 279.464 160.177 279.132 160.206 278.803V278.803Z" fill="black"/>
<path opacity="0.1" d="M138.845 274.922C139.173 276.512 139.686 278.132 139.527 279.725C139.424 278.549 139.085 277.366 138.845 276.199C138.645 275.313 138.575 274.402 138.636 273.495C138.675 273.975 138.745 274.452 138.845 274.922Z" fill="black"/>
</g>
<path d="M209.642 274.085L196.647 285.708C196.604 285.746 196.554 285.776 196.499 285.795C196.445 285.814 196.387 285.822 196.33 285.819C196.272 285.816 196.216 285.801 196.164 285.776C196.112 285.751 196.066 285.716 196.027 285.673L196.027 285.673L176.297 263.613C176.282 263.597 176.27 263.58 176.258 263.563C176.2 263.475 176.175 263.369 176.188 263.264C176.202 263.16 176.252 263.063 176.331 262.993L189.326 251.37C189.369 251.332 189.419 251.302 189.474 251.283C189.528 251.264 189.586 251.256 189.643 251.259C189.701 251.262 189.757 251.277 189.809 251.302C189.861 251.327 189.908 251.362 189.946 251.404L189.946 251.405L209.677 273.465C209.715 273.508 209.745 273.558 209.764 273.612C209.783 273.667 209.791 273.724 209.788 273.782C209.785 273.839 209.77 273.896 209.745 273.948C209.72 274 209.685 274.046 209.642 274.085L209.642 274.085Z" fill="#E6E6E6"/>
<path d="M188.743 264.693C190.793 265.261 192.915 264.059 193.482 262.009C194.049 259.96 192.848 257.838 190.798 257.271C188.748 256.703 186.627 257.905 186.059 259.955C185.492 262.004 186.694 264.126 188.743 264.693Z" fill="#00509D"/>
<path d="M188.976 277.894L176.382 263.813C176.366 263.796 176.351 263.777 176.339 263.757L193.831 260.099C193.939 260.076 194.052 260.081 194.157 260.115C194.262 260.149 194.357 260.211 194.43 260.293C194.504 260.376 194.555 260.477 194.577 260.585C194.599 260.694 194.592 260.806 194.557 260.911L190.813 272.304L190.634 272.849L188.976 277.894Z" fill="#3F3D56"/>
<path opacity="0.2" d="M188.976 277.894L184.676 273.086L190.215 272.38L190.614 272.33L190.813 272.304L190.634 272.849L188.976 277.894Z" fill="black"/>
<path d="M195.988 285.734L185.095 273.555L190.634 272.849L191.033 272.798L198.251 271.878C198.724 271.818 199.176 272.287 199.132 272.752C199.129 272.784 199.124 272.815 199.117 272.846L195.988 285.734Z" fill="#3F3D56"/>
<path d="M212.98 274.342C213.134 274.056 213.196 273.73 213.158 273.408C213.12 273.086 212.984 272.783 212.768 272.54L191.077 248.288C190.939 248.134 190.772 248.008 190.586 247.919C190.399 247.829 190.197 247.777 189.99 247.765C189.783 247.754 189.576 247.783 189.381 247.851C189.186 247.92 189.006 248.026 188.851 248.164L170.241 264.81C169.93 265.089 169.742 265.48 169.718 265.897C169.695 266.314 169.838 266.724 170.117 267.036L191.807 291.288C192.086 291.599 192.477 291.787 192.895 291.81C193.312 291.833 193.721 291.69 194.033 291.412L212.644 274.767C212.78 274.646 212.893 274.502 212.98 274.342ZM193.91 291.274C193.635 291.519 193.273 291.645 192.905 291.625C192.537 291.604 192.192 291.439 191.946 291.164L170.255 266.912C170.009 266.637 169.883 266.275 169.903 265.907C169.924 265.539 170.09 265.194 170.364 264.948L188.975 248.303C189.25 248.057 189.612 247.931 189.98 247.951C190.348 247.972 190.693 248.137 190.939 248.412L212.63 272.664C212.875 272.939 213.002 273.301 212.981 273.669C212.961 274.037 212.795 274.382 212.52 274.628L193.91 291.274Z" fill="#3F3D56"/>
<path d="M210.334 280.524C210.309 280.2 210.185 279.892 209.979 279.641C209.773 279.391 209.495 279.209 209.182 279.122L177.824 270.442C177.625 270.387 177.416 270.371 177.211 270.396C177.005 270.422 176.807 270.487 176.627 270.589C176.447 270.691 176.288 270.828 176.161 270.991C176.034 271.154 175.94 271.341 175.884 271.541L169.223 295.604C169.112 296.007 169.166 296.438 169.372 296.801C169.578 297.165 169.919 297.432 170.322 297.544L201.68 306.225C202.083 306.335 202.513 306.282 202.877 306.076C203.24 305.87 203.508 305.528 203.62 305.126L210.281 281.062C210.33 280.887 210.348 280.705 210.334 280.524V280.524Z" fill="white"/>
<path d="M210.334 280.524C210.309 280.2 210.185 279.892 209.979 279.641C209.773 279.391 209.495 279.209 209.182 279.122L177.824 270.442C177.625 270.387 177.416 270.371 177.211 270.396C177.005 270.422 176.807 270.487 176.627 270.589C176.447 270.691 176.288 270.828 176.161 270.991C176.034 271.154 175.94 271.341 175.884 271.541L169.223 295.604C169.112 296.007 169.166 296.438 169.372 296.801C169.578 297.165 169.919 297.432 170.322 297.544L201.68 306.225C202.083 306.335 202.513 306.282 202.877 306.076C203.24 305.87 203.508 305.528 203.62 305.126L210.281 281.062C210.33 280.887 210.348 280.705 210.334 280.524V280.524ZM203.441 305.076C203.342 305.432 203.106 305.733 202.785 305.915C202.465 306.097 202.085 306.144 201.729 306.046L170.371 297.365C170.016 297.267 169.715 297.031 169.533 296.71C169.351 296.389 169.304 296.009 169.402 295.654L176.063 271.59C176.162 271.235 176.398 270.933 176.719 270.752C177.04 270.57 177.419 270.523 177.775 270.621L209.133 279.301C209.488 279.4 209.79 279.636 209.971 279.957C210.153 280.277 210.2 280.657 210.102 281.013L203.441 305.076Z" fill="#3F3D56"/>
<path d="M207.387 282.111L202.735 298.914C202.72 298.97 202.694 299.022 202.659 299.067C202.623 299.113 202.579 299.151 202.529 299.179C202.479 299.207 202.424 299.226 202.366 299.233C202.309 299.24 202.251 299.236 202.196 299.22L173.672 291.324C173.651 291.319 173.631 291.312 173.612 291.303C173.516 291.26 173.437 291.185 173.392 291.089C173.347 290.994 173.337 290.886 173.366 290.784L178.017 273.981C178.032 273.926 178.058 273.874 178.094 273.828C178.129 273.783 178.173 273.745 178.223 273.717C178.274 273.688 178.329 273.67 178.386 273.663C178.443 273.656 178.501 273.66 178.557 273.675L207.081 281.571C207.136 281.587 207.188 281.613 207.234 281.648C207.279 281.684 207.317 281.728 207.346 281.778C207.374 281.828 207.392 281.883 207.399 281.94C207.406 281.998 207.402 282.056 207.387 282.111L207.387 282.111Z" fill="#E6E6E6"/>
<path d="M182.558 285.539C184.608 286.107 186.73 284.905 187.297 282.855C187.865 280.806 186.663 278.684 184.613 278.117C182.563 277.549 180.442 278.751 179.874 280.8C179.307 282.85 180.509 284.972 182.558 285.539Z" fill="#FFD500"/>
<path d="M192.058 296.486L173.852 291.447C173.829 291.441 173.806 291.432 173.785 291.422L186.525 278.891C186.603 278.812 186.701 278.756 186.808 278.728C186.915 278.7 187.028 278.7 187.134 278.73C187.241 278.759 187.338 278.817 187.415 278.896C187.493 278.975 187.547 279.074 187.574 279.181L190.583 290.79L190.727 291.346L192.058 296.486Z" fill="#3F3D56"/>
<path opacity="0.2" d="M192.058 296.486L185.842 294.766L190.121 291.178L190.429 290.92L190.583 290.79L190.727 291.346L192.058 296.486Z" fill="black"/>
<path d="M202.196 299.293L186.448 294.934L190.727 291.346L191.035 291.087L196.61 286.412C196.976 286.105 197.609 286.255 197.824 286.671C197.839 286.699 197.851 286.728 197.862 286.758L202.196 299.293Z" fill="#3F3D56"/>
<path d="M210.334 280.524C210.309 280.2 210.185 279.892 209.979 279.641C209.773 279.391 209.495 279.209 209.182 279.122L177.824 270.442C177.625 270.387 177.416 270.371 177.211 270.396C177.005 270.422 176.807 270.487 176.627 270.589C176.447 270.691 176.288 270.828 176.161 270.991C176.034 271.154 175.94 271.341 175.884 271.541L169.223 295.604C169.112 296.007 169.166 296.438 169.372 296.801C169.578 297.165 169.919 297.432 170.322 297.544L201.68 306.225C202.083 306.335 202.513 306.282 202.877 306.076C203.24 305.87 203.508 305.528 203.62 305.126L210.281 281.062C210.33 280.887 210.348 280.705 210.334 280.524V280.524ZM203.441 305.076C203.342 305.432 203.106 305.733 202.785 305.915C202.465 306.097 202.085 306.144 201.729 306.046L170.371 297.365C170.016 297.267 169.715 297.031 169.533 296.71C169.351 296.389 169.304 296.009 169.402 295.654L176.063 271.59C176.162 271.235 176.398 270.933 176.719 270.752C177.04 270.57 177.419 270.523 177.775 270.621L209.133 279.301C209.488 279.4 209.79 279.636 209.971 279.957C210.153 280.277 210.2 280.657 210.102 281.013L203.441 305.076Z" fill="#3F3D56"/>
<path d="M47.7553 280.751C51.6115 271.652 61.4278 269.933 61.4278 269.933C61.4278 269.933 70.8794 267.412 78.7728 279.42C86.13 290.613 95.6176 301.1 83.5854 305.568L80.4071 298.893L80.0258 306.574C78.2762 306.939 76.5079 307.207 74.7289 307.378C61.3829 308.734 48.8022 310.988 48.5692 306.165C48.2595 299.754 44.0449 289.505 47.7553 280.751Z" fill="#2F2E41"/>
<path d="M63.5095 298.627C69.4588 298.627 74.2817 293.804 74.2817 287.855C74.2817 281.906 69.4588 277.083 63.5095 277.083C57.5602 277.083 52.7373 281.906 52.7373 287.855C52.7373 293.804 57.5602 298.627 63.5095 298.627Z" fill="#FFD7BA"/>
<path d="M60.3521 294.727C60.3521 294.727 60.1664 305.685 59.052 308.285C57.9376 310.885 78.9249 306.242 78.9249 306.242C78.9249 306.242 71.4958 301.042 70.3814 293.984L60.3521 294.727Z" fill="#FFD7BA"/>
<path d="M62.068 303.798L60.0395 302.306L45.724 303.055L42.7524 335.743C42.7524 335.743 34.2089 345.772 44.6096 345.772C55.0104 345.772 64.6682 340.943 72.0973 344.286C79.5264 347.629 85.8412 308.998 85.8412 308.998L74.7358 302.306C74.7358 302.306 69.8686 308.255 62.068 303.798Z" fill="#00509D"/>
<path d="M49.7657 330.201L70.5672 334.658V339.487L49.7657 340.23C49.7657 340.23 47.537 331.687 49.7657 330.201Z" fill="#FFD7BA"/>
<path d="M49.7657 304.942L45.6797 303.085C45.6797 303.085 40.8508 304.199 40.4794 308.285C40.1079 312.371 33.0502 338.744 38.6221 339.859C44.1939 340.973 51.623 340.973 51.623 340.973C51.623 340.973 46.7941 334.287 52.7374 330.572L48.2799 328.344C48.2799 328.344 43.8224 318.314 46.7941 313.114C49.7657 307.914 49.7657 304.942 49.7657 304.942Z" fill="#00509D"/>
<path d="M49.9357 277.445L59.7731 272.292L73.3587 274.4L76.1693 286.814L69.1726 286.545L67.2178 281.984V286.47L63.9895 286.346L62.1154 279.084L60.9444 286.814L49.4672 286.58L49.9357 277.445Z" fill="#2F2E41"/>
<path d="M74.3436 290.272C75.4378 290.272 76.3247 288.719 76.3247 286.805C76.3247 284.89 75.4378 283.338 74.3436 283.338C73.2495 283.338 72.3625 284.89 72.3625 286.805C72.3625 288.719 73.2495 290.272 74.3436 290.272Z" fill="#FFD7BA"/>
<path d="M74.5341 289.259C75.2808 289.259 75.8862 288.654 75.8862 287.907C75.8862 287.16 75.2808 286.555 74.5341 286.555C73.7874 286.555 73.1821 287.16 73.1821 287.907C73.1821 288.654 73.7874 289.259 74.5341 289.259Z" fill="white"/>
<path d="M75.1147 288.363C75.2361 288.363 75.3344 288.068 75.3344 287.703C75.3344 287.339 75.2361 287.044 75.1147 287.044C74.9933 287.044 74.8949 287.339 74.8949 287.703C74.8949 288.068 74.9933 288.363 75.1147 288.363Z" fill="#2F2E41"/>
<path d="M75.0795 291.831C74.9877 291.831 74.8998 291.795 74.8349 291.73C74.77 291.665 74.7336 291.577 74.7336 291.485L74.3877 288.718H75.4254V291.485C75.4254 291.531 75.4165 291.576 75.3991 291.618C75.3817 291.66 75.3562 291.698 75.3241 291.73C75.292 291.762 75.2538 291.788 75.2119 291.805C75.1699 291.822 75.1249 291.831 75.0795 291.831V291.831Z" fill="white"/>
<path opacity="0.1" d="M48.1028 315.02L44.5953 330.22H52.7798L46.3492 328.759L48.1028 315.02Z" fill="black"/>
<path d="M90.3588 340.129L90.2811 340.059L92.201 337.929C92.347 337.767 92.4596 337.578 92.5324 337.372C92.6053 337.167 92.637 336.949 92.6257 336.732C92.6144 336.514 92.5603 336.301 92.4665 336.104C92.3728 335.907 92.2412 335.731 92.0793 335.585L87.5658 331.517C87.4039 331.371 87.2148 331.258 87.0094 331.186C86.804 331.113 86.5862 331.081 86.3685 331.092C86.1508 331.104 85.9375 331.158 85.7407 331.251C85.5439 331.345 85.3675 331.477 85.2216 331.639L74.6885 343.326C74.5425 343.488 74.4299 343.677 74.3571 343.882C74.2842 344.088 74.2525 344.306 74.2638 344.523C74.2751 344.741 74.3292 344.954 74.423 345.151C74.5167 345.348 74.6483 345.524 74.8102 345.67L79.3237 349.738C79.4856 349.884 79.6747 349.997 79.8801 350.069C80.0855 350.142 80.3033 350.174 80.521 350.163C80.7387 350.151 80.952 350.097 81.1488 350.003C81.3456 349.91 81.522 349.778 81.6679 349.616L88.9144 341.576L88.9922 341.646L90.3588 340.129Z" fill="#3F3D56"/>
<path d="M86.8179 338.032C87.4087 338.032 87.8876 337.554 87.8876 336.963C87.8876 336.372 87.4087 335.893 86.8179 335.893C86.2272 335.893 85.7483 336.372 85.7483 336.963C85.7483 337.554 86.2272 338.032 86.8179 338.032Z" fill="#6C63FF"/>
<path d="M79.4008 336.318C79.4008 336.318 92.0632 339.383 89.1457 343.752C86.2283 348.122 74.7101 340.135 74.7101 340.135L79.4008 336.318Z" fill="#FFD7BA"/>
<path d="M82.4539 309.028H85.797C85.797 309.028 89.5115 313.114 88.7686 316.829C88.0257 320.543 85.797 338.001 85.797 338.001C85.797 338.001 74.6533 348.402 69.0815 342.83C63.5097 337.259 67.5957 332.058 67.5957 332.058C67.5957 332.058 75.0248 338.001 79.1108 330.201L82.4539 309.028Z" fill="#00509D"/>
<path d="M79.1313 334.353L81.6897 309.076C81.6897 309.076 87.0562 293.119 81.8176 292.728C76.579 292.337 76.211 307.849 76.211 307.849L67.0872 335.509C67.0872 335.509 72.0942 340.413 79.1313 334.353Z" fill="#FFD7BA"/>
</g>
</g>
<rect x="198.68" y="68.5166" width="3.12038" height="20.5054" rx="1.56019" fill="#FEFDFD"/>
<rect x="198.68" y="90.805" width="3.12038" height="20.5054" rx="1.56019" fill="#FEFDFD"/>
<rect x="198.68" y="119.779" width="3.12038" height="28.0834" rx="1.56019" fill="#FEFDFD"/>
</g>
<defs>
<filter id="filter0_d_208_4377" x="0.160025" y="0.160025" width="235.841" height="381.607" filterUnits="userSpaceOnUse" color-interpolation-filters="sRGB">
<feFlood flood-opacity="0" result="BackgroundImageFix"/>
<feColorMatrix in="SourceAlpha" type="matrix" values="0 0 0 0 0 0 0 0 0 0 0 0 0 0 0 0 0 0 127 0" result="hardAlpha"/>
<feOffset dx="13.68" dy="13.68"/>
<feGaussianBlur stdDeviation="10.26"/>
<feColorMatrix type="matrix" values="0 0 0 0 0.291667 0 0 0 0 0.291667 0 0 0 0 0.291667 0 0 0 0.15 0"/>
<feBlend mode="normal" in2="BackgroundImageFix" result="effect1_dropShadow_208_4377"/>
<feBlend mode="normal" in="SourceGraphic" in2="effect1_dropShadow_208_4377" result="shape"/>
</filter>
<linearGradient id="paint0_linear_208_4377" x1="138.156" y1="357.556" x2="138.156" y2="264.343" gradientUnits="userSpaceOnUse">
<stop stop-color="#808080" stop-opacity="0.25"/>
<stop offset="0.54" stop-color="#808080" stop-opacity="0.12"/>
<stop offset="1" stop-color="#808080" stop-opacity="0.1"/>
</linearGradient>
<clipPath id="clip0_208_4377">
<rect x="7" y="7" width="191.681" height="340.568" rx="13.3731" fill="white"/>
</clipPath>
<clipPath id="clip1_208_4377">
<rect x="11.0211" y="14.1487" width="183.631" height="326.604" rx="13.4037" fill="white"/>
</clipPath>
</defs>
</svg>
