<svg width="25" height="25" viewBox="0 0 25 25" fill="none" xmlns="http://www.w3.org/2000/svg">
<path fill-rule="evenodd" clip-rule="evenodd" d="M5.59998 6.22178C5.59998 4.06787 7.34607 2.32178 9.49998 2.32178H15.5C17.6539 2.32178 19.4 4.06787 19.4 6.22178V18.7218C19.4 20.8757 17.6539 22.6218 15.5 22.6218H9.49998C7.34607 22.6218 5.59998 20.8757 5.59998 18.7218V6.22178ZM9.49998 4.12178C8.34018 4.12178 7.39998 5.06198 7.39998 6.22178V18.7218C7.39998 19.8816 8.34018 20.8218 9.49998 20.8218H15.5C16.6598 20.8218 17.6 19.8816 17.6 18.7218V6.22178C17.6 5.06198 16.6598 4.12178 15.5 4.12178H9.49998ZM11.616 18.9444C11.8504 19.1788 12.1684 19.3105 12.4999 19.3105C12.7471 19.3105 12.9888 19.2372 13.1943 19.0999C13.3999 18.9625 13.5601 18.7673 13.6547 18.5389C13.7493 18.3105 13.7741 18.0592 13.7259 17.8167C13.6776 17.5742 13.5586 17.3515 13.3838 17.1767C13.209 17.0019 12.9862 16.8828 12.7438 16.8346C12.5013 16.7863 12.2499 16.8111 12.0215 16.9057C11.7931 17.0003 11.5979 17.1605 11.4606 17.3661C11.3232 17.5716 11.2499 17.8133 11.2499 18.0606C11.2499 18.3921 11.3816 18.71 11.616 18.9444Z" fill="#F8F9FA"/>
</svg>
