<svg width="63" height="63" viewBox="0 0 63 63" fill="none" xmlns="http://www.w3.org/2000/svg">
<path d="M37.25 28.625V43M8.5 14.25H54.5L49.9575 55.1325C49.8018 56.5394 49.1326 57.8395 48.078 58.7838C47.0234 59.728 45.6575 60.2501 44.242 60.25H18.758C17.3425 60.2501 15.9766 59.728 14.922 58.7838C13.8674 57.8395 13.1982 56.5394 13.0425 55.1325L8.5 14.25ZM18.1169 6.04763C18.5819 5.06141 19.3178 4.22774 20.2386 3.64387C21.1595 3.06 22.2274 2.74999 23.3177 2.75H39.6822C40.7731 2.74944 41.8416 3.0592 42.763 3.6431C43.6844 4.227 44.4207 5.06096 44.886 6.04763L48.75 14.25H14.25L18.1169 6.04763V6.04763ZM2.75 14.25H60.25H2.75ZM25.75 28.625V43V28.625Z" stroke="#343A40" stroke-width="5" stroke-linecap="round" stroke-linejoin="round"/>
</svg>
