<svg width="105" height="47" viewBox="0 0 105 47" fill="none" xmlns="http://www.w3.org/2000/svg">
<path fill-rule="evenodd" clip-rule="evenodd" d="M25.8634 29.0202L38.1024 37.8797C38.2925 38.0187 38.4413 38.2067 38.5331 38.4236C38.6249 38.6405 38.6561 38.8782 38.6235 39.1114C38.5909 39.3447 38.4956 39.5647 38.3478 39.7481C38.2001 39.9315 38.0053 40.0714 37.7844 40.1529L19.4902 46.6749C18.7866 46.9375 18.0304 47.0278 17.2848 46.9383C16.5392 46.8489 15.8258 46.5823 15.2042 46.1608L3.52009 38.1199C2.50203 37.42 1.70724 36.4415 1.23089 35.3016C0.75453 34.1617 0.616789 32.9087 0.834152 31.6926L4.66685 9.89724C4.79175 9.18915 5.10066 8.52637 5.56259 7.97537C6.02453 7.42437 6.62324 7.00454 7.29867 6.75801L26.0765 0.0736115C26.2875 -0.00113573 26.5144 -0.0193534 26.7345 0.0207702C26.9547 0.0608938 27.1606 0.157961 27.3316 0.302318C27.5027 0.446675 27.6329 0.633292 27.7095 0.843612C27.786 1.05393 27.8062 1.28063 27.7679 1.50115L23.8134 23.9663C23.6456 24.9162 23.7489 25.8942 24.1115 26.7881C24.4741 27.682 25.0813 28.4556 25.8634 29.0202ZM13.7226 26.7841C17.0479 25.5697 19.7372 22.9379 19.9029 22.7721C20.0463 22.606 20.1453 22.4063 20.1909 22.1916C20.2364 21.9769 20.227 21.7542 20.1634 21.5442C20.1465 21.4914 20.1189 21.4427 20.0823 21.4011C20.0457 21.3595 20.001 21.3259 19.9508 21.3024C19.9006 21.2789 19.8461 21.266 19.7908 21.2646C19.7354 21.2631 19.6803 21.2731 19.6289 21.2939C19.5373 21.3269 19.455 21.3814 19.3888 21.4529C19.3859 21.4551 19.3743 21.466 19.3542 21.4849L19.3537 21.4854L19.3536 21.4855C19.0328 21.7872 16.5971 24.078 13.6651 25.1401C12.109 25.7084 10.4108 25.9351 8.8243 25.3431C8.73145 25.3092 8.62962 25.3092 8.53677 25.3431C8.41869 25.3989 8.31368 25.4789 8.22859 25.578C8.1435 25.6771 8.08022 25.793 8.04288 25.9181C7.89404 26.341 8.00229 26.8822 8.28306 26.9905C10.0962 27.6637 11.994 27.4133 13.7226 26.7841ZM92.3101 33.8361C92.3754 33.8733 92.4495 33.8924 92.5247 33.8914L103.843 33.9015C103.899 33.9015 103.955 33.9126 104.006 33.9341C104.058 33.9555 104.104 33.987 104.144 34.0266C104.183 34.0662 104.214 34.1132 104.235 34.1649C104.256 34.2166 104.267 34.272 104.266 34.3278V36.0767C104.267 36.4137 104.201 36.7475 104.072 37.059C103.943 37.3705 103.755 37.6535 103.517 37.892C103.278 38.1305 102.996 38.3196 102.684 38.4487C102.373 38.5778 102.039 38.6442 101.702 38.6442H87.0141C86.9017 38.6433 86.7941 38.598 86.7149 38.5182C86.6357 38.4384 86.5913 38.3304 86.5913 38.218V36.442C86.5903 34.8714 86.9539 33.3221 87.6535 31.9158C88.3317 30.5308 89.227 29.2632 90.3056 28.1609C91.3475 27.1021 92.4401 26.0738 93.5057 25.1536C94.5713 24.2335 95.6064 23.2424 96.5773 22.2275C97.1378 21.652 97.6335 21.0168 98.0555 20.3332C98.0922 20.2682 98.1113 20.1948 98.1107 20.1203C98.1102 20.0457 98.09 19.9726 98.0524 19.9082C98.0147 19.8438 97.9608 19.7905 97.8961 19.7534C97.8313 19.7164 97.758 19.697 97.6834 19.6972H87.0649C86.9524 19.6972 86.8445 19.6528 86.7647 19.5736C86.6848 19.4944 86.6395 19.3868 86.6386 19.2744V15.3943C86.6395 15.2818 86.6848 15.1743 86.7647 15.0951C86.8445 15.0159 86.9524 14.9714 87.0649 14.9714H103.505C103.617 14.9714 103.725 15.016 103.804 15.0953C103.884 15.1746 103.928 15.2822 103.928 15.3943V17.583C103.927 19.0415 103.56 20.4766 102.862 21.7573C102.156 23.0655 101.254 24.2577 100.187 25.2923C99.1279 26.3207 98.0285 27.3153 96.9156 28.2489C95.8075 29.1825 94.7505 30.1751 93.7493 31.2224C93.1466 31.8396 92.6124 32.5201 92.156 33.2521C92.1175 33.3166 92.0969 33.3903 92.0963 33.4655C92.0958 33.5407 92.1153 33.6147 92.1529 33.6798C92.1904 33.745 92.2447 33.7989 92.3101 33.8361ZM71.6123 22.3459C71.0397 20.9211 70.1965 19.6207 69.1293 18.5166C68.0329 17.3926 66.7207 16.5016 65.2716 15.8971C63.8225 15.2925 62.2661 14.9869 60.696 14.9985C58.7526 14.9846 56.8357 15.4493 55.1144 16.3516C55.0295 16.3965 54.9586 16.4637 54.9091 16.546C54.8596 16.6283 54.8335 16.7225 54.8336 16.8184V20.3839C54.8338 20.478 54.8593 20.5704 54.9074 20.6513C54.9556 20.7322 55.0247 20.7986 55.1074 20.8436C55.1901 20.8886 55.2834 20.9105 55.3775 20.907C55.4716 20.9035 55.563 20.8747 55.6421 20.8237C57.1129 19.9017 58.8218 19.4313 60.5573 19.4705C61.5821 19.4581 62.5989 19.6513 63.5477 20.0389C64.4081 20.395 65.183 20.9301 65.8209 21.6085C66.4572 22.2994 66.9454 23.1133 67.2552 24.0001C67.9234 25.9748 67.9234 28.1144 67.2552 30.0891C66.9469 30.9714 66.4675 31.7841 65.8446 32.4808C65.2273 33.1525 64.4759 33.6872 63.639 34.0504C62.7077 34.4408 61.7057 34.6343 60.696 34.6187C59.7027 34.6313 58.717 34.445 57.7969 34.0707C56.9538 33.7204 56.195 33.1946 55.5711 32.5281C54.9373 31.8352 54.4495 31.0219 54.1367 30.1365C53.7943 29.1455 53.6238 28.1032 53.6327 27.0548V5.23576C53.6292 5.09996 53.5727 4.9709 53.4754 4.87611C53.3781 4.78132 53.2476 4.7283 53.1118 4.72834H49.4144C49.2759 4.72834 49.143 4.78312 49.0448 4.88072C48.9466 4.97832 48.8909 5.11082 48.89 5.24929V27.0548C48.879 28.6785 49.1906 30.2883 49.8068 31.7907C50.3787 33.2146 51.2262 34.5115 52.3008 35.607C53.3753 36.7024 54.6557 37.5748 56.0683 38.174C57.5296 38.8031 59.1051 39.1233 60.696 39.1144C62.2804 39.1246 63.8496 38.8043 65.3033 38.174C68.1518 36.9369 70.4063 34.6387 71.5886 31.767C72.2033 30.2726 72.5138 28.6706 72.5019 27.0548C72.5148 25.4422 72.2126 23.8426 71.6123 22.3459ZM76.3516 15.0255H82.1903C82.2507 15.0255 82.3105 15.0374 82.3663 15.0606C82.4221 15.0837 82.4729 15.1176 82.5156 15.1603C82.5583 15.203 82.5922 15.2537 82.6153 15.3095C82.6384 15.3654 82.6503 15.4252 82.6503 15.4856V38.1807C82.6503 38.3028 82.6019 38.4198 82.5156 38.5061C82.4293 38.5923 82.3123 38.6408 82.1903 38.6408H78.4895C78.3675 38.6408 78.2505 38.5923 78.1642 38.5061C78.0779 38.4198 78.0294 38.3028 78.0294 38.1807V19.5551C78.0294 19.5273 78.0184 19.5006 77.9987 19.4809C77.979 19.4613 77.9524 19.4502 77.9246 19.4502H74.6805C74.603 19.4502 74.5267 19.4306 74.4588 19.3933C74.3909 19.3559 74.3335 19.302 74.292 19.2365C74.2505 19.171 74.2262 19.0962 74.2213 19.0188C74.2165 18.9414 74.2313 18.8641 74.2644 18.794L75.9355 15.286C75.9732 15.2077 76.0322 15.1417 76.1059 15.0956C76.1795 15.0496 76.2647 15.0252 76.3516 15.0255ZM79.5111 10.9966C80.2577 10.9966 80.9876 10.7752 81.6085 10.3604C82.2293 9.94558 82.7132 9.35597 82.9989 8.66614C83.2846 7.97632 83.3594 7.21725 83.2137 6.48494C83.0681 5.75262 82.7085 5.07994 82.1805 4.55197C81.6526 4.024 80.9799 3.66445 80.2476 3.51878C79.5153 3.37312 78.7562 3.44788 78.0664 3.73361C77.3766 4.01935 76.7869 4.50323 76.3721 5.12405C75.9573 5.74488 75.7359 6.47478 75.7359 7.22144C75.7359 8.22268 76.1336 9.18292 76.8416 9.89091C77.5496 10.5989 78.5098 10.9966 79.5111 10.9966ZM46.147 38.1715C45.5802 38.5503 44.9137 38.7524 44.232 38.7524C43.3177 38.7524 42.441 38.3893 41.7945 37.7428C41.1481 37.0964 40.7849 36.2196 40.7849 35.3054C40.7849 34.6236 40.9871 33.9572 41.3658 33.3903C41.7446 32.8234 42.283 32.3816 42.9128 32.1207C43.5427 31.8598 44.2358 31.7915 44.9044 31.9245C45.5731 32.0576 46.1873 32.3859 46.6694 32.8679C47.1515 33.35 47.4798 33.9642 47.6128 34.6329C47.7458 35.3016 47.6775 35.9946 47.4166 36.6245C47.1557 37.2544 46.7139 37.7927 46.147 38.1715Z" fill="#0F87FF"/>
</svg>
