<svg width="104" height="47" viewBox="0 0 104 47" fill="none" xmlns="http://www.w3.org/2000/svg">
<path fill-rule="evenodd" clip-rule="evenodd" d="M25.1295 29.0202L37.3685 37.8797C37.5586 38.0187 37.7075 38.2067 37.7992 38.4236C37.891 38.6405 37.9222 38.8782 37.8896 39.1114C37.857 39.3447 37.7617 39.5647 37.6139 39.7481C37.4662 39.9315 37.2715 40.0714 37.0505 40.1529L18.7564 46.6749C18.0528 46.9375 17.2965 47.0278 16.5509 46.9383C15.8053 46.8489 15.0919 46.5823 14.4704 46.1608L2.7862 38.1199C1.76814 37.42 0.973356 36.4415 0.497 35.3016C0.0206437 34.1617 -0.117098 32.9087 0.100266 31.6926L3.93297 9.89724C4.05786 9.18915 4.36677 8.52637 4.82871 7.97537C5.29064 7.42437 5.88935 7.00455 6.56478 6.75801L25.3427 0.0736111C25.5536 -0.00113597 25.7805 -0.0193531 26.0007 0.0207699C26.2208 0.0608939 26.4267 0.157961 26.5977 0.302317C26.7688 0.446674 26.899 0.633292 26.9756 0.843612C27.0521 1.05393 27.0723 1.28063 27.034 1.50115L23.0796 23.9663C22.9117 24.9162 23.015 25.8942 23.3776 26.7881C23.7402 27.682 24.3474 28.4556 25.1295 29.0202ZM12.9887 26.7841C16.314 25.5697 19.0033 22.9379 19.1691 22.7721C19.3124 22.606 19.4115 22.4063 19.457 22.1916C19.5025 21.9769 19.4931 21.7542 19.4295 21.5442C19.4126 21.4914 19.385 21.4427 19.3484 21.4011C19.3119 21.3595 19.2671 21.3259 19.2169 21.3024C19.1667 21.2789 19.1123 21.266 19.0569 21.2646C19.0015 21.2631 18.9464 21.2731 18.8951 21.2939C18.8034 21.3269 18.7211 21.3814 18.6549 21.4529C18.6521 21.4551 18.6404 21.466 18.6203 21.4849L18.6198 21.4854L18.6197 21.4855C18.2989 21.7872 15.8632 24.078 12.9312 25.1401C11.3751 25.7084 9.67695 25.9351 8.09042 25.3431C7.99756 25.3092 7.89573 25.3092 7.80288 25.3431C7.6848 25.3989 7.5798 25.4789 7.4947 25.578C7.40961 25.6771 7.34633 25.793 7.30899 25.9181C7.16015 26.341 7.2684 26.8822 7.54917 26.9905C9.36235 27.6637 11.2601 27.4133 12.9887 26.7841ZM91.5762 33.8363C91.6416 33.8735 91.7156 33.8926 91.7908 33.8916L103.11 33.9018C103.165 33.9018 103.221 33.9128 103.272 33.9343C103.324 33.9557 103.371 33.9872 103.41 34.0268C103.449 34.0664 103.48 34.1135 103.501 34.1652C103.522 34.2169 103.533 34.2722 103.533 34.328V36.0769C103.533 36.4139 103.467 36.7477 103.338 37.0592C103.21 37.3707 103.021 37.6538 102.783 37.8922C102.545 38.1307 102.262 38.3199 101.95 38.4489C101.639 38.578 101.305 38.6445 100.968 38.6445H86.2803C86.1678 38.6436 86.0603 38.5983 85.9811 38.5184C85.9019 38.4386 85.8574 38.3307 85.8574 38.2182V36.4423C85.8565 34.8717 86.2201 33.3223 86.9196 31.9161C87.5978 30.5311 88.4932 29.2634 89.5717 28.1612C90.6136 27.1024 91.7063 26.074 92.7718 25.1539C93.8374 24.2338 94.8726 23.2426 95.8434 22.2278C96.4039 21.6522 96.8997 21.017 97.3217 20.3334C97.3584 20.2685 97.3774 20.1951 97.3769 20.1205C97.3763 20.0459 97.3562 19.9728 97.3185 19.9084C97.2809 19.844 97.227 19.7907 97.1622 19.7537C97.0975 19.7166 97.0242 19.6973 96.9496 19.6974H86.331C86.2186 19.6974 86.1106 19.653 86.0308 19.5738C85.951 19.4946 85.9057 19.387 85.9048 19.2746V15.3945C85.9057 15.2821 85.951 15.1745 86.0308 15.0953C86.1106 15.0161 86.2186 14.9717 86.331 14.9717H102.771C102.884 14.9717 102.991 15.0162 103.07 15.0955C103.15 15.1748 103.194 15.2824 103.194 15.3945V17.5832C103.193 19.0418 102.827 20.4768 102.129 21.7576C101.423 23.0657 100.52 24.2579 99.4529 25.2926C98.394 26.3209 97.2946 27.3155 96.1817 28.2491C95.0737 29.1827 94.0167 30.1753 93.0154 31.2226C92.4128 31.8398 91.8786 32.5203 91.4221 33.2523C91.3836 33.3169 91.363 33.3906 91.3625 33.4658C91.3619 33.5409 91.3814 33.6149 91.419 33.6801C91.4566 33.7452 91.5108 33.7992 91.5762 33.8363ZM70.8784 22.3461C70.3058 20.9213 69.4626 19.6209 68.3954 18.5168C67.299 17.3928 65.9869 16.5018 64.5377 15.8972C63.0886 15.2927 61.5323 14.9871 59.9621 14.9987C58.0187 14.9848 56.1018 15.4495 54.3805 16.3518C54.2957 16.3967 54.2247 16.4639 54.1752 16.5462C54.1258 16.6284 54.0996 16.7226 54.0997 16.8186V20.3841C54.0999 20.4782 54.1254 20.5706 54.1736 20.6515C54.2217 20.7324 54.2908 20.7988 54.3735 20.8438C54.4562 20.8888 54.5495 20.9107 54.6436 20.9071C54.7377 20.9036 54.8291 20.8749 54.9082 20.8238C56.3791 19.9019 58.0879 19.4314 59.8234 19.4707C60.8482 19.4583 61.865 19.6515 62.8138 20.039C63.6742 20.3952 64.4491 20.9302 65.087 21.6086C65.7234 22.2996 66.2115 23.1135 66.5213 24.0003C67.1895 25.975 67.1895 28.1146 66.5213 30.0893C66.213 30.9715 65.7337 31.7843 65.1107 32.4809C64.4934 33.1526 63.742 33.6874 62.9051 34.0505C61.9738 34.4409 60.9718 34.6344 59.9621 34.6189C58.9689 34.6315 57.9831 34.4452 57.0631 34.0708C56.22 33.7206 55.4612 33.1947 54.8372 32.5283C54.2034 31.8354 53.7156 31.022 53.4029 30.1367C53.0604 29.1457 52.8899 28.1034 52.8988 27.0549V5.23593C52.8953 5.10013 52.8389 4.97107 52.7416 4.87628C52.6442 4.78149 52.5137 4.72847 52.3779 4.72852H48.6805C48.542 4.72851 48.4092 4.78329 48.3109 4.88089C48.2127 4.97849 48.1571 5.11099 48.1562 5.24946V27.0549C48.1451 28.6787 48.4567 30.2885 49.0729 31.7908C49.6448 33.2148 50.4924 34.5117 51.5669 35.6071C52.6414 36.7026 53.9218 37.575 55.3345 38.1742C56.7957 38.8033 58.3712 39.1235 59.9621 39.1146C61.5466 39.1248 63.1158 38.8045 64.5695 38.1742C67.418 36.937 69.6725 34.6389 70.8547 31.7672C71.4694 30.2728 71.7799 28.6708 71.768 27.0549C71.7809 25.4424 71.4787 23.8428 70.8784 22.3461ZM75.6177 15.0254H81.4564C81.5168 15.0254 81.5766 15.0373 81.6324 15.0604C81.6883 15.0835 81.739 15.1174 81.7817 15.1601C81.8244 15.2029 81.8583 15.2536 81.8814 15.3094C81.9045 15.3652 81.9164 15.425 81.9164 15.4855V38.1806C81.9164 38.3026 81.868 38.4196 81.7817 38.5059C81.6954 38.5922 81.5784 38.6407 81.4564 38.6407H77.7556C77.6336 38.6407 77.5166 38.5922 77.4303 38.5059C77.344 38.4196 77.2956 38.3026 77.2956 38.1806V19.555C77.2956 19.5271 77.2845 19.5005 77.2648 19.4808C77.2452 19.4611 77.2185 19.4501 77.1907 19.4501H73.9466C73.8691 19.4501 73.7928 19.4305 73.7249 19.3931C73.657 19.3558 73.5996 19.3018 73.5581 19.2364C73.5166 19.1709 73.4923 19.096 73.4875 19.0186C73.4826 18.9413 73.4974 18.8639 73.5305 18.7938L75.2016 15.2859C75.2393 15.2076 75.2984 15.1416 75.372 15.0955C75.4456 15.0494 75.5308 15.0251 75.6177 15.0254ZM78.7772 10.9966C79.5239 10.9966 80.2538 10.7752 80.8746 10.3604C81.4954 9.94558 81.9793 9.35597 82.265 8.66614C82.5508 7.97632 82.6255 7.21725 82.4799 6.48494C82.3342 5.75262 81.9746 5.07994 81.4467 4.55197C80.9187 4.024 80.246 3.66445 79.5137 3.51878C78.7814 3.37312 78.0223 3.44788 77.3325 3.73361C76.6427 4.01935 76.0531 4.50323 75.6383 5.12405C75.2234 5.74488 75.002 6.47478 75.002 7.22144C75.002 8.22268 75.3997 9.18292 76.1077 9.89091C76.8157 10.5989 77.776 10.9966 78.7772 10.9966ZM45.4132 38.1715C44.8463 38.5503 44.1798 38.7524 43.4981 38.7524C42.5839 38.7524 41.7071 38.3893 41.0606 37.7428C40.4142 37.0964 40.051 36.2196 40.051 35.3054C40.051 34.6236 40.2532 33.9572 40.6319 33.3903C41.0107 32.8234 41.5491 32.3816 42.1789 32.1207C42.8088 31.8598 43.5019 31.7915 44.1706 31.9245C44.8392 32.0575 45.4534 32.3858 45.9355 32.8679C46.4176 33.35 46.7459 33.9642 46.8789 34.6329C47.0119 35.3015 46.9436 35.9946 46.6827 36.6245C46.4218 37.2544 45.98 37.7927 45.4132 38.1715Z" fill="#F8F9FA"/>
</svg>
