<svg width="375" height="812" viewBox="0 0 375 812" fill="none" xmlns="http://www.w3.org/2000/svg">
<rect width="375" height="812" fill="#0F87FF"/>
<path d="M81.2043 373.115H73.401C73.3646 373.115 73.3297 373.101 73.3039 373.075C73.2782 373.049 73.2637 373.014 73.2637 372.978V368.226C73.2642 368.107 73.2294 367.991 73.1636 367.892C73.0978 367.793 73.004 367.716 72.8943 367.671C72.7845 367.626 72.6638 367.614 72.5474 367.637C72.431 367.661 72.3242 367.719 72.2407 367.803L62.1744 377.869C62.0909 377.953 62.0341 378.06 62.0113 378.177C61.9884 378.293 62.0005 378.413 62.0459 378.523C62.0914 378.632 62.1682 378.726 62.2668 378.791C62.3653 378.857 62.4811 378.892 62.5995 378.892H66.9706C66.9886 378.892 67.0065 378.896 67.0231 378.903C67.0398 378.91 67.0549 378.92 67.0677 378.933C67.0804 378.945 67.0905 378.961 67.0974 378.977C67.1043 378.994 67.1079 379.012 67.1079 379.03V391.693C67.1079 396.051 68.3081 399.222 70.673 401.111C72.9626 402.944 76.5033 403.897 81.1954 403.945C81.2746 403.946 81.3531 403.93 81.4263 403.9C81.4995 403.87 81.566 403.826 81.622 403.77C81.678 403.714 81.7223 403.647 81.7525 403.574C81.7826 403.501 81.798 403.422 81.7977 403.343V398.766C81.7966 398.608 81.7333 398.456 81.6215 398.344C81.5097 398.231 81.3583 398.168 81.1999 398.166C80.311 398.165 79.4232 398.104 78.5427 397.982C77.6572 397.833 76.7941 397.573 75.9741 397.207C75.0966 396.82 74.3887 396.129 73.9812 395.261C73.5139 394.328 73.277 393.128 73.277 391.693V379.036C73.277 379 73.2915 378.965 73.3172 378.939C73.343 378.914 73.3779 378.899 73.4143 378.899H81.2043C81.3634 378.899 81.5161 378.836 81.6286 378.723C81.7411 378.611 81.8044 378.458 81.8044 378.299V373.722C81.8053 373.643 81.7904 373.564 81.7606 373.49C81.7309 373.417 81.6868 373.35 81.631 373.293C81.5752 373.237 81.5087 373.192 81.4355 373.162C81.3622 373.131 81.2837 373.115 81.2043 373.115Z" fill="white"/>
<path d="M104.052 385.885C103.062 386.665 101.231 387.059 98.6067 387.059H94.5899C94.487 387.059 94.3852 387.08 94.2904 387.12C94.1956 387.161 94.1097 387.219 94.0377 387.293C93.9656 387.366 93.9088 387.453 93.8706 387.549C93.8324 387.644 93.8134 387.746 93.8149 387.849L93.992 391.638C93.9926 391.844 94.0748 392.041 94.2205 392.186C94.3662 392.332 94.5635 392.413 94.7693 392.413L98.1815 392.382C107.218 392.382 111.802 388.864 111.802 381.919C111.802 376.315 108.224 373.326 101.173 373.036C96.399 372.874 92.5793 374.315 89.8136 377.329C87.0479 380.343 85.6617 384.306 85.6617 389.145C85.6617 393.505 87.0811 397.116 89.8867 399.878C92.6922 402.639 96.4809 404.038 101.162 404.038C104.882 404.038 108.17 402.958 110.94 400.823C111.017 400.763 111.079 400.688 111.124 400.602C111.168 400.516 111.194 400.421 111.2 400.325C111.205 400.228 111.19 400.131 111.155 400.041C111.12 399.95 111.067 399.868 110.998 399.8L107.858 396.713C107.745 396.599 107.594 396.529 107.434 396.517C107.274 396.506 107.114 396.552 106.986 396.649C105.467 397.739 103.507 398.29 101.162 398.29C98.434 398.29 96.1953 397.384 94.508 395.6C92.8207 393.815 91.9482 391.437 91.9482 388.538C91.9482 385.794 92.752 383.412 94.3353 381.452C95.9185 379.493 98.0996 378.536 100.852 378.536C102.236 378.536 103.381 378.835 104.253 379.422C105.126 380.008 105.507 380.828 105.507 381.977C105.507 383.81 105.017 385.124 104.052 385.885Z" fill="white"/>
<path d="M151.055 374.86C149.255 373.702 146.808 373.115 143.781 373.115H116.248C116.169 373.116 116.091 373.131 116.018 373.162C115.945 373.193 115.879 373.238 115.823 373.294C115.767 373.351 115.724 373.417 115.694 373.491C115.664 373.564 115.65 373.643 115.65 373.722V403.345C115.65 403.504 115.714 403.657 115.826 403.77C115.939 403.882 116.091 403.945 116.25 403.945H121.08C121.239 403.945 121.392 403.882 121.504 403.77C121.617 403.657 121.68 403.504 121.68 403.345V379.036C121.68 379 121.694 378.965 121.72 378.939C121.746 378.914 121.781 378.899 121.817 378.899H132.152C132.188 378.899 132.223 378.914 132.249 378.939C132.274 378.965 132.289 379 132.289 379.036V403.345C132.289 403.504 132.352 403.657 132.465 403.77C132.577 403.882 132.73 403.945 132.889 403.945H137.727C137.886 403.945 138.039 403.882 138.152 403.77C138.264 403.657 138.327 403.504 138.327 403.345V379.036C138.327 379.018 138.33 379.001 138.337 378.984C138.344 378.967 138.354 378.952 138.366 378.939C138.379 378.927 138.394 378.916 138.41 378.91C138.427 378.903 138.444 378.899 138.462 378.899H140.677C143.701 378.899 145.73 379.167 146.706 379.696C148.597 380.702 149.556 382.825 149.556 386.007V403.352C149.556 403.511 149.619 403.664 149.732 403.776C149.844 403.889 149.997 403.952 150.156 403.952H154.999C155.158 403.952 155.311 403.889 155.423 403.776C155.536 403.664 155.599 403.511 155.599 403.352V386C155.599 383.456 155.309 381.242 154.735 379.415C154.162 377.588 152.906 376.023 151.055 374.86Z" fill="white"/>
<path d="M185.778 377.615C184.372 376.191 182.708 375.049 180.873 374.251C178.976 373.428 176.929 373.01 174.861 373.022C172.785 373.012 170.728 373.43 168.821 374.251C166.974 375.03 165.299 376.167 163.894 377.596C162.489 379.025 161.381 380.719 160.634 382.579C159.835 384.534 159.43 386.628 159.441 388.739V417.209C159.441 417.39 159.513 417.564 159.64 417.692C159.768 417.82 159.942 417.893 160.123 417.893H164.948C165.129 417.893 165.303 417.82 165.431 417.692C165.559 417.564 165.631 417.39 165.632 417.209V388.744C165.618 387.367 165.843 385.998 166.296 384.698C166.702 383.54 167.339 382.477 168.17 381.574C168.984 380.703 169.974 380.016 171.075 379.559C172.276 379.071 173.563 378.828 174.859 378.846C176.174 378.826 177.479 379.079 178.692 379.588C179.785 380.059 180.766 380.756 181.571 381.634C182.384 382.545 183.011 383.606 183.415 384.758C184.293 387.343 184.293 390.145 183.415 392.73C183.009 393.887 182.372 394.949 181.542 395.852C180.708 396.737 179.696 397.435 178.573 397.9C177.334 398.409 176.005 398.662 174.666 398.644C172.231 398.644 170.078 398.042 168.245 396.859C168.142 396.792 168.023 396.754 167.901 396.75C167.778 396.745 167.657 396.774 167.55 396.833C167.442 396.892 167.352 396.978 167.289 397.084C167.226 397.19 167.193 397.31 167.193 397.433V402.083C167.192 402.208 167.226 402.331 167.291 402.438C167.355 402.545 167.448 402.632 167.558 402.69C169.804 403.874 172.307 404.486 174.846 404.472C176.896 404.488 178.929 404.089 180.821 403.299C182.713 402.51 184.426 401.346 185.858 399.878C187.251 398.434 188.352 396.733 189.099 394.871C189.88 392.923 190.275 390.842 190.262 388.744C190.294 384.588 188.682 380.588 185.778 377.615Z" fill="white"/>
<path d="M217.027 376.213C214.799 374.158 211.575 373.113 207.443 373.113H197.372C197.293 373.113 197.214 373.129 197.141 373.16C197.068 373.191 197.001 373.236 196.945 373.293C196.89 373.349 196.846 373.416 196.816 373.49C196.786 373.564 196.771 373.642 196.772 373.722V378.292C196.772 378.371 196.788 378.449 196.818 378.522C196.848 378.595 196.892 378.661 196.948 378.717C197.004 378.772 197.07 378.817 197.143 378.847C197.215 378.877 197.293 378.892 197.372 378.892H207.115C211.987 378.892 214.349 381.328 214.349 386.317V398.031C214.349 398.067 214.335 398.102 214.309 398.128C214.283 398.154 214.249 398.168 214.212 398.168H206.241C202.226 398.168 200.273 396.879 200.273 394.224C200.273 392.858 200.78 391.833 201.823 391.091C202.866 390.349 204.383 389.964 206.307 389.964C208.3 389.964 210.045 390.436 211.491 391.361C211.583 391.42 211.689 391.453 211.798 391.457C211.907 391.461 212.015 391.435 212.111 391.383C212.206 391.332 212.285 391.256 212.34 391.163C212.395 391.07 212.424 390.964 212.423 390.856V386.149C212.422 386.019 212.38 385.893 212.303 385.789C212.226 385.685 212.117 385.609 211.993 385.571C210.091 384.972 208.111 384.655 206.117 384.63C202.709 384.63 199.832 385.453 197.567 387.065C195.302 388.677 194.117 391.133 194.117 394.278C194.117 397.422 195.224 399.844 197.372 401.483C199.52 403.122 202.432 403.934 206.055 403.934H219.783C219.862 403.934 219.941 403.919 220.014 403.889C220.087 403.859 220.153 403.815 220.209 403.759C220.265 403.703 220.31 403.637 220.34 403.564C220.37 403.491 220.386 403.413 220.386 403.334V385.115C220.392 381.271 219.259 378.275 217.027 376.213Z" fill="white"/>
<path d="M243.541 373.115H235.737C235.719 373.115 235.702 373.112 235.685 373.105C235.668 373.098 235.653 373.088 235.64 373.075C235.628 373.062 235.617 373.047 235.611 373.03C235.604 373.014 235.6 372.996 235.6 372.978V368.226C235.6 368.107 235.565 367.991 235.499 367.893C235.432 367.794 235.339 367.717 235.229 367.672C235.119 367.627 234.998 367.615 234.882 367.638C234.766 367.662 234.659 367.719 234.575 367.803L224.509 377.869C224.424 377.953 224.366 378.06 224.343 378.177C224.319 378.293 224.331 378.414 224.377 378.524C224.422 378.634 224.5 378.728 224.599 378.793C224.698 378.859 224.815 378.893 224.934 378.892H229.307C229.325 378.892 229.343 378.896 229.359 378.903C229.376 378.91 229.391 378.92 229.403 378.933C229.416 378.946 229.426 378.961 229.432 378.977C229.439 378.994 229.442 379.012 229.442 379.03V391.693C229.442 396.051 230.642 399.222 233.009 401.111C235.299 402.944 238.84 403.897 243.532 403.945C243.691 403.945 243.844 403.881 243.957 403.768C244.07 403.655 244.134 403.503 244.134 403.343V398.766C244.133 398.608 244.07 398.456 243.958 398.344C243.846 398.231 243.695 398.168 243.536 398.166C242.647 398.165 241.76 398.104 240.879 397.982C239.994 397.833 239.13 397.573 238.31 397.207C237.429 396.822 236.717 396.131 236.306 395.261C235.839 394.328 235.602 393.128 235.602 391.693V379.036C235.602 379.018 235.606 379 235.613 378.984C235.62 378.967 235.63 378.952 235.643 378.939C235.655 378.927 235.67 378.916 235.687 378.91C235.704 378.903 235.722 378.899 235.74 378.899H243.543C243.622 378.899 243.7 378.884 243.773 378.853C243.845 378.823 243.911 378.779 243.967 378.723C244.023 378.668 244.067 378.601 244.097 378.529C244.127 378.456 244.143 378.378 244.143 378.299V373.722C244.144 373.642 244.129 373.563 244.099 373.49C244.069 373.416 244.025 373.349 243.969 373.293C243.913 373.236 243.846 373.191 243.773 373.161C243.699 373.13 243.62 373.115 243.541 373.115Z" fill="white"/>
<path d="M258.488 373.115H250.864C250.75 373.116 250.639 373.148 250.543 373.209C250.447 373.27 250.37 373.356 250.321 373.458L248.142 378.035C248.098 378.127 248.078 378.228 248.084 378.329C248.09 378.43 248.121 378.528 248.175 378.613C248.229 378.699 248.304 378.77 248.393 378.818C248.482 378.867 248.581 378.893 248.683 378.892H252.919C252.955 378.892 252.99 378.907 253.016 378.933C253.041 378.958 253.056 378.993 253.056 379.03V403.345C253.056 403.504 253.119 403.657 253.232 403.77C253.344 403.882 253.497 403.945 253.656 403.945H258.488C258.647 403.945 258.799 403.882 258.912 403.77C259.025 403.657 259.088 403.504 259.088 403.345V373.722C259.088 373.643 259.073 373.564 259.043 373.491C259.014 373.417 258.969 373.35 258.914 373.294C258.858 373.238 258.792 373.193 258.718 373.162C258.645 373.131 258.567 373.116 258.488 373.115Z" fill="white"/>
<path d="M254.989 367.858C257.711 367.858 259.918 365.652 259.918 362.929C259.918 360.207 257.711 358 254.989 358C252.267 358 250.06 360.207 250.06 362.929C250.06 365.652 252.267 367.858 254.989 367.858Z" fill="white"/>
<path d="M311.33 406.051L295.812 394.811C294.82 394.093 294.05 393.11 293.59 391.974C293.131 390.838 293.001 389.596 293.215 388.39L298.221 359.911C298.271 359.629 298.246 359.338 298.147 359.069C298.049 358.8 297.881 358.561 297.661 358.377C297.441 358.194 297.176 358.072 296.893 358.023C296.611 357.975 296.32 358.002 296.051 358.102L272.267 366.592C271.41 366.905 270.651 367.438 270.065 368.138C269.48 368.837 269.089 369.679 268.933 370.578L264.061 398.197C263.794 399.736 263.975 401.32 264.582 402.76C265.189 404.199 266.198 405.434 267.487 406.317L282.303 416.516C283.088 417.056 283.991 417.4 284.936 417.52C285.881 417.641 286.841 417.533 287.737 417.207L310.918 408.93C311.198 408.827 311.445 408.65 311.632 408.418C311.82 408.187 311.941 407.908 311.983 407.613C312.026 407.318 311.987 407.017 311.872 406.742C311.757 406.467 311.57 406.228 311.33 406.051ZM288.257 386.886C288.035 387.108 284.639 390.429 280.42 391.979C278.23 392.778 275.821 393.086 273.525 392.24C273.166 392.105 273.029 391.419 273.219 390.881C273.266 390.722 273.346 390.575 273.454 390.45C273.562 390.325 273.696 390.224 273.846 390.154C273.963 390.111 274.092 390.111 274.209 390.154C276.222 390.907 278.374 390.617 280.35 389.895C284.302 388.452 287.555 385.274 287.604 385.225C287.689 385.137 287.793 385.068 287.907 385.024C287.972 384.998 288.042 384.985 288.112 384.987C288.183 384.989 288.252 385.006 288.315 385.036C288.379 385.066 288.436 385.108 288.482 385.161C288.528 385.214 288.563 385.276 288.585 385.343C288.662 385.607 288.671 385.886 288.612 386.154C288.553 386.423 288.428 386.672 288.248 386.879L288.257 386.886Z" fill="white"/>
<path d="M111.385 449.195H108.291L107.354 454H105.678L106.616 449.195H103.815V447.59H106.92L107.729 443.441H104.705V441.812H108.045L109.006 436.938H110.682L109.721 441.812H112.815L113.776 436.938H115.463L114.502 441.812H116.893V443.441H114.186L113.377 447.59H116.014V449.195H113.073L112.135 454H110.448L111.385 449.195ZM108.596 447.59H111.69L112.498 443.441H109.405L108.596 447.59ZM121.84 447.32V454H119.59V436.938H125.883C127.75 436.938 129.211 437.414 130.266 438.367C131.328 439.32 131.859 440.582 131.859 442.152C131.859 443.809 131.34 445.086 130.301 445.984C129.27 446.875 127.789 447.32 125.859 447.32H121.84ZM121.84 445.48H125.883C127.086 445.48 128.008 445.199 128.648 444.637C129.289 444.066 129.609 443.246 129.609 442.176C129.609 441.16 129.289 440.348 128.648 439.738C128.008 439.129 127.129 438.812 126.012 438.789H121.84V445.48ZM139.888 454.234C138.17 454.234 136.771 453.672 135.693 452.547C134.615 451.414 134.076 449.902 134.076 448.012V447.613C134.076 446.355 134.314 445.234 134.791 444.25C135.275 443.258 135.947 442.484 136.806 441.93C137.673 441.367 138.611 441.086 139.619 441.086C141.267 441.086 142.548 441.629 143.462 442.715C144.377 443.801 144.834 445.355 144.834 447.379V448.281H136.244C136.275 449.531 136.638 450.543 137.334 451.316C138.037 452.082 138.927 452.465 140.005 452.465C140.771 452.465 141.42 452.309 141.951 451.996C142.482 451.684 142.947 451.27 143.345 450.754L144.67 451.785C143.607 453.418 142.013 454.234 139.888 454.234ZM139.619 442.867C138.744 442.867 138.009 443.188 137.416 443.828C136.822 444.461 136.455 445.352 136.314 446.5H142.666V446.336C142.603 445.234 142.306 444.383 141.775 443.781C141.244 443.172 140.525 442.867 139.619 442.867ZM155.136 450.637C155.136 450.051 154.913 449.598 154.468 449.277C154.03 448.949 153.261 448.668 152.159 448.434C151.066 448.199 150.195 447.918 149.546 447.59C148.905 447.262 148.429 446.871 148.116 446.418C147.812 445.965 147.659 445.426 147.659 444.801C147.659 443.762 148.097 442.883 148.972 442.164C149.855 441.445 150.98 441.086 152.347 441.086C153.784 441.086 154.948 441.457 155.839 442.199C156.737 442.941 157.187 443.891 157.187 445.047H155.007C155.007 444.453 154.753 443.941 154.245 443.512C153.745 443.082 153.112 442.867 152.347 442.867C151.558 442.867 150.941 443.039 150.495 443.383C150.05 443.727 149.827 444.176 149.827 444.73C149.827 445.254 150.034 445.648 150.448 445.914C150.862 446.18 151.609 446.434 152.687 446.676C153.773 446.918 154.652 447.207 155.323 447.543C155.995 447.879 156.491 448.285 156.812 448.762C157.14 449.23 157.304 449.805 157.304 450.484C157.304 451.617 156.851 452.527 155.945 453.215C155.038 453.895 153.862 454.234 152.417 454.234C151.402 454.234 150.503 454.055 149.722 453.695C148.941 453.336 148.327 452.836 147.882 452.195C147.445 451.547 147.226 450.848 147.226 450.098H149.394C149.433 450.824 149.722 451.402 150.261 451.832C150.808 452.254 151.527 452.465 152.417 452.465C153.237 452.465 153.894 452.301 154.386 451.973C154.886 451.637 155.136 451.191 155.136 450.637ZM165.79 454.234C164.071 454.234 162.673 453.672 161.595 452.547C160.516 451.414 159.977 449.902 159.977 448.012V447.613C159.977 446.355 160.216 445.234 160.692 444.25C161.177 443.258 161.848 442.484 162.708 441.93C163.575 441.367 164.512 441.086 165.52 441.086C167.169 441.086 168.45 441.629 169.364 442.715C170.278 443.801 170.735 445.355 170.735 447.379V448.281H162.145C162.177 449.531 162.54 450.543 163.235 451.316C163.938 452.082 164.829 452.465 165.907 452.465C166.673 452.465 167.321 452.309 167.852 451.996C168.384 451.684 168.848 451.27 169.247 450.754L170.571 451.785C169.509 453.418 167.915 454.234 165.79 454.234ZM165.52 442.867C164.645 442.867 163.911 443.188 163.317 443.828C162.723 444.461 162.356 445.352 162.216 446.5H168.567V446.336C168.505 445.234 168.208 444.383 167.677 443.781C167.145 443.172 166.427 442.867 165.52 442.867ZM175.705 441.32L175.776 442.914C176.745 441.695 178.01 441.086 179.573 441.086C182.252 441.086 183.604 442.598 183.627 445.621V454H181.459V445.609C181.452 444.695 181.241 444.02 180.827 443.582C180.42 443.145 179.784 442.926 178.916 442.926C178.213 442.926 177.596 443.113 177.065 443.488C176.534 443.863 176.12 444.355 175.823 444.965V454H173.655V441.32H175.705ZM197.059 449.547H189.91L188.305 454H185.984L192.5 436.938H194.469L200.996 454H198.688L197.059 449.547ZM190.59 447.695H196.391L193.484 439.715L190.59 447.695ZM205.591 441.32V455.465C205.591 457.902 204.486 459.121 202.275 459.121C201.798 459.121 201.357 459.051 200.951 458.91V457.176C201.201 457.238 201.529 457.27 201.935 457.27C202.42 457.27 202.787 457.137 203.037 456.871C203.295 456.613 203.423 456.16 203.423 455.512V441.32H205.591ZM203.201 437.957C203.201 437.613 203.306 437.32 203.517 437.078C203.736 436.828 204.052 436.703 204.466 436.703C204.888 436.703 205.209 436.824 205.427 437.066C205.646 437.309 205.755 437.605 205.755 437.957C205.755 438.309 205.646 438.602 205.427 438.836C205.209 439.07 204.888 439.188 204.466 439.188C204.045 439.188 203.728 439.07 203.517 438.836C203.306 438.602 203.201 438.309 203.201 437.957ZM217.323 454C217.198 453.75 217.097 453.305 217.019 452.664C216.011 453.711 214.808 454.234 213.409 454.234C212.159 454.234 211.132 453.883 210.327 453.18C209.53 452.469 209.132 451.57 209.132 450.484C209.132 449.164 209.632 448.141 210.632 447.414C211.64 446.68 213.054 446.312 214.874 446.312H216.984V445.316C216.984 444.559 216.757 443.957 216.304 443.512C215.851 443.059 215.183 442.832 214.3 442.832C213.527 442.832 212.878 443.027 212.355 443.418C211.831 443.809 211.57 444.281 211.57 444.836H209.39C209.39 444.203 209.612 443.594 210.058 443.008C210.511 442.414 211.12 441.945 211.886 441.602C212.659 441.258 213.507 441.086 214.429 441.086C215.89 441.086 217.034 441.453 217.862 442.188C218.691 442.914 219.12 443.918 219.152 445.199V451.035C219.152 452.199 219.3 453.125 219.597 453.812V454H217.323ZM213.726 452.348C214.405 452.348 215.05 452.172 215.659 451.82C216.269 451.469 216.71 451.012 216.984 450.449V447.848H215.284C212.628 447.848 211.3 448.625 211.3 450.18C211.3 450.859 211.527 451.391 211.98 451.773C212.433 452.156 213.015 452.348 213.726 452.348ZM223.29 454V436.938H228.106C229.591 436.938 230.903 437.266 232.044 437.922C233.184 438.578 234.063 439.512 234.68 440.723C235.305 441.934 235.622 443.324 235.63 444.895V445.984C235.63 447.594 235.317 449.004 234.692 450.215C234.075 451.426 233.188 452.355 232.032 453.004C230.884 453.652 229.544 453.984 228.012 454H223.29ZM225.54 438.789V452.16H227.907C229.641 452.16 230.989 451.621 231.95 450.543C232.919 449.465 233.403 447.93 233.403 445.938V444.941C233.403 443.004 232.946 441.5 232.032 440.43C231.126 439.352 229.837 438.805 228.165 438.789H225.54ZM246.928 452.746C246.084 453.738 244.846 454.234 243.213 454.234C241.862 454.234 240.83 453.844 240.12 453.062C239.416 452.273 239.061 451.109 239.053 449.57V441.32H241.221V449.512C241.221 451.434 242.002 452.395 243.565 452.395C245.221 452.395 246.323 451.777 246.87 450.543V441.32H249.038V454H246.975L246.928 452.746ZM255.098 454H252.93V436H255.098V454ZM266.806 452.746C265.962 453.738 264.724 454.234 263.091 454.234C261.74 454.234 260.709 453.844 259.998 453.062C259.295 452.273 258.939 451.109 258.931 449.57V441.32H261.099V449.512C261.099 451.434 261.88 452.395 263.443 452.395C265.099 452.395 266.201 451.777 266.748 450.543V441.32H268.916V454H266.853L266.806 452.746Z" fill="white"/>
</svg>
